<svg width="32" height="32" viewBox="0 0 32 32" fill="none" xmlns="http://www.w3.org/2000/svg">
<path d="M7 16C7 15.4533 7.45333 15 8 15H21.8133L16.5733 8.99998C16.2133 8.57331 16.2667 7.94665 16.68 7.58665C16.8667 7.42665 17.1067 7.33331 17.3333 7.33331C17.6133 7.33331 17.8933 7.45331 18.0933 7.67998L24.7067 15.2933L24.8267 15.44C24.9333 15.6 25 15.8 25 16C25 16.2 24.9333 16.4 24.8267 16.56L24.7067 16.7066L18.0933 24.32C17.72 24.7333 17.0933 24.7733 16.68 24.4133C16.2667 24.0533 16.2133 23.4266 16.5733 23L21.8133 17H8C7.45333 17 7 16.5466 7 16Z" fill="white"/>
</svg>
