<svg xmlns="http://www.w3.org/2000/svg" fill="none" viewBox="0 0 97 27.65">
<g clip-path="url(#clip0_962_41273)">
<path d="M67.6621 27.6199V0.0440385C67.8236 -8.78015e-06 96.565 -0.0169492 96.9479 0.0237098C96.9942 0.172793 97.0157 27.2133 96.9694 27.6052C96.8169 27.6459 68.0913 27.6639 67.6621 27.6199ZM90.9959 5.33084C90.9383 5.30373 90.8886 5.27663 90.8355 5.25517C89.894 4.86827 88.9309 4.53641 87.9509 4.26128C87.155 4.02381 86.3405 3.85417 85.5159 3.75417C84.984 3.70109 84.4486 3.67511 83.9155 3.66156C83.0046 3.63923 82.0935 3.69629 81.1925 3.8321C80.1007 4.00868 79.0389 4.33714 78.0381 4.80792C75.8798 5.79164 74.2173 7.3028 73.1511 9.43853C72.5212 10.6862 72.1574 12.0512 72.0826 13.4468C72.0609 14.0747 72.1056 14.7032 72.2159 15.3217C72.5108 17.3379 73.4271 19.2121 74.8373 20.683C75.7348 21.6502 76.8242 22.4195 78.0358 22.9418C79.7015 23.6317 81.4817 24.0033 83.2842 24.0374C84.7176 24.0722 86.1491 23.913 87.5399 23.5642C88.748 23.272 89.9176 22.8383 91.0241 22.2721C91.0767 22.2517 91.1212 22.2148 91.1509 22.167C91.1807 22.1191 91.194 22.0628 91.189 22.0067C91.1834 20.8581 91.189 19.7106 91.189 18.562C91.189 18.5157 91.1811 18.4694 91.1743 18.3937L90.9281 18.5382C89.7816 19.2537 88.5539 19.83 87.2711 20.255C86.2433 20.587 85.1952 20.8197 84.1087 20.8502C83.6761 20.8603 83.2424 20.831 82.8099 20.7993C81.9517 20.7389 81.1056 20.5626 80.2947 20.2753C78.4616 19.6191 77.1108 18.4377 76.3326 16.6352C75.9769 15.8274 75.7783 14.9592 75.7476 14.077C75.7352 13.2813 75.8496 12.4887 76.0864 11.729C76.476 10.3307 77.3391 9.11107 78.5282 8.27862C79.8948 7.31184 81.4432 6.87362 83.0945 6.7652C83.911 6.72683 84.7291 6.79134 85.5295 6.9572C87.3835 7.31002 89.1684 7.95989 90.8152 8.88173C90.8694 8.91109 90.9281 8.93481 90.997 8.96869L90.9959 5.33084Z" fill="#040052"/>
<path d="M0 0.0202637H29.2926C29.3355 0.18177 29.3479 27.3364 29.305 27.6221H0V0.0202637ZM7.70601 23.7505H7.97821C10.4358 23.7505 12.893 23.7505 15.3499 23.7505C15.8342 23.7567 16.3182 23.7262 16.7978 23.659C17.7661 23.5315 18.7058 23.2413 19.5773 22.8006C20.4605 22.3387 21.1935 21.713 21.6938 20.8399C22.1399 20.0526 22.3683 19.1607 22.3557 18.2558C22.3656 17.5634 22.2263 16.877 21.9472 16.2432C21.6681 15.6094 21.2558 15.0432 20.7384 14.583C20.0359 13.9313 19.1899 13.5349 18.2762 13.2695C18.2118 13.2503 18.1475 13.2288 18.0503 13.1994L18.2435 13.0865C19.1199 12.5828 19.8021 11.8972 20.2098 10.9632C20.5259 10.2152 20.6351 9.39606 20.526 8.59141C20.3724 7.25757 19.7795 6.15752 18.719 5.33078C17.4868 4.37191 16.0422 3.9608 14.5153 3.9224C12.3197 3.86819 10.1218 3.90885 7.92511 3.90998C7.85509 3.90998 7.78506 3.90998 7.69923 3.92014L7.70601 23.7505Z" fill="#040052"/>
<path d="M33.8349 0.0202637H63.1444V27.6018C62.9953 27.6458 34.1184 27.6594 33.8337 27.6142L33.8349 0.0202637ZM41.5375 23.7505H41.8221C44.279 23.7505 46.7362 23.7505 49.1938 23.7505C49.7811 23.7571 50.3678 23.7106 50.9467 23.6115C51.9187 23.4563 52.8546 23.1264 53.7092 22.638C54.4162 22.2364 55.0138 21.6675 55.4497 20.9811C55.9348 20.1886 56.1919 19.2777 56.1928 18.3484C56.2188 16.8542 55.6755 15.6006 54.5857 14.5852C53.8843 13.9324 53.0383 13.5349 52.1269 13.2672L51.8909 13.1915L52.0727 13.0888C52.9762 12.5726 53.6765 11.8622 54.0808 10.8909C54.3846 10.1364 54.4817 9.31459 54.362 8.51009C54.2933 7.88671 54.0993 7.28363 53.7917 6.7371C53.4841 6.19056 53.0692 5.71183 52.5719 5.32966C51.3544 4.3753 49.9212 4.02631 48.4145 3.89981H41.7148C41.6595 3.89981 41.6019 3.90885 41.5431 3.9145L41.5375 23.7505Z" fill="#040052"/>
<path d="M90.9957 5.33091V8.96877C90.9257 8.93488 90.8681 8.91117 90.8139 8.8818C89.1669 7.95906 87.3816 7.30842 85.5271 6.95502C84.7267 6.78915 83.9086 6.72464 83.0921 6.76301C81.4409 6.87596 79.8924 7.30965 78.5258 8.27643C77.3367 9.10888 76.4736 10.3285 76.084 11.7268C75.8472 12.4865 75.7328 13.2792 75.7452 14.0749C75.7756 14.9578 75.9742 15.8268 76.3302 16.6353C77.1084 18.4423 78.4592 19.6192 80.2923 20.2754C81.1032 20.5627 81.9493 20.7389 82.8075 20.7994C83.24 20.831 83.6737 20.8604 84.1063 20.8502C85.1905 20.8243 86.2386 20.5871 87.2687 20.255C88.5523 19.8302 89.7807 19.2539 90.928 18.5383L91.1685 18.3949C91.1753 18.4706 91.1832 18.5169 91.1832 18.5632C91.1832 19.7118 91.1832 20.8593 91.1832 22.0079C91.1882 22.064 91.1749 22.1203 91.1451 22.1682C91.1154 22.216 91.0709 22.2529 91.0183 22.2733C89.9135 22.8387 88.7459 23.272 87.5397 23.5642C86.1504 23.9123 84.7204 24.0711 83.2886 24.0363C81.4861 24.0022 79.7058 23.6306 78.0402 22.9408C76.8285 22.4185 75.7392 21.6491 74.8417 20.682C73.4296 19.2113 72.5117 17.3367 72.2158 15.3195C72.1054 14.701 72.0607 14.0725 72.0825 13.4446C72.1572 12.049 72.5211 10.684 73.1509 9.43635C74.2171 7.30288 75.8796 5.79172 78.0379 4.80573C79.0388 4.33495 80.1005 4.0065 81.1924 3.82992C82.0934 3.69411 83.0045 3.63705 83.9154 3.65938C84.4485 3.67293 84.9838 3.69891 85.5158 3.75199C86.3403 3.85198 87.1549 4.02163 87.9508 4.2591C88.9308 4.53422 89.8939 4.86608 90.8353 5.25298C90.8884 5.2767 90.9381 5.30381 90.9957 5.33091Z" fill="white"/>
<path d="M7.70618 23.7505V3.91226C7.78749 3.91226 7.85752 3.90209 7.93206 3.90209C10.1288 3.90209 12.3266 3.8603 14.5222 3.91452C16.0492 3.95292 17.4937 4.36628 18.7259 5.3229C19.7887 6.14963 20.3816 7.24969 20.533 8.58353C20.6421 9.38817 20.5329 10.2074 20.2167 10.9553C19.809 11.8893 19.1268 12.5749 18.2504 13.0786L18.0573 13.1916C18.1499 13.2209 18.2143 13.2424 18.2832 13.2616C19.1969 13.527 20.0428 13.9234 20.7453 14.5751C21.2626 15.0368 21.6742 15.6046 21.9521 16.2398C22.2301 16.875 22.3678 17.5626 22.3558 18.2559C22.369 19.161 22.141 20.0533 21.6951 20.8411C21.1948 21.7141 20.4618 22.3398 19.5786 22.8018C18.7071 23.2425 17.7674 23.5327 16.7991 23.6601C16.3195 23.7273 15.8355 23.7579 15.3512 23.7516C12.8951 23.7516 10.4379 23.7516 7.9795 23.7516L7.70618 23.7505ZM11.2492 20.683H11.5304C12.6214 20.683 13.7135 20.6886 14.8057 20.683C15.1831 20.6846 15.5602 20.6638 15.9351 20.6209C16.4818 20.5562 17.01 20.3822 17.4881 20.1092C18.7598 19.3796 18.9653 17.8255 18.4774 16.8667C18.1386 16.2116 17.6044 15.8039 16.929 15.5566C16.2739 15.3171 15.5918 15.2629 14.9028 15.2606C13.7531 15.2606 12.6033 15.2606 11.4547 15.2606C11.3915 15.2606 11.3293 15.2685 11.2571 15.2731L11.2492 20.683ZM11.2492 12.1299H11.5078C12.1437 12.1299 12.7784 12.1299 13.4143 12.1299C13.8115 12.1343 14.2077 12.0884 14.5934 11.9932C15.1527 11.8712 15.6751 11.6184 16.1181 11.2557C17.2215 10.3206 17.3672 8.12273 15.5534 7.31632C15.0482 7.09821 14.5032 6.98708 13.953 6.98992C13.1149 6.97863 12.2781 6.98992 11.44 6.98992C11.3768 6.98992 11.3147 6.99783 11.2446 7.00347L11.2492 12.1299Z" fill="white"/>
<path d="M41.5376 23.7506V3.91239C41.5997 3.90674 41.6505 3.89771 41.7093 3.89771H48.409C49.9156 4.0242 51.3455 4.37319 52.5664 5.32755C53.0636 5.70972 53.4785 6.18845 53.7862 6.73499C54.0938 7.28153 54.2878 7.8846 54.3565 8.50799C54.4761 9.31248 54.3791 10.1343 54.0753 10.8888C53.6709 11.8601 52.9741 12.5705 52.0672 13.0866L51.8853 13.1894L52.1214 13.2651C53.0328 13.5328 53.8788 13.9303 54.5801 14.5831C55.67 15.5996 56.2133 16.8521 56.1873 18.3463C56.1864 19.2755 55.9292 20.1865 55.4441 20.979C55.0082 21.6654 54.4106 22.2343 53.7037 22.6359C52.851 23.1245 51.917 23.4551 50.9468 23.6117C50.3698 23.7112 49.785 23.7584 49.1996 23.7529C46.742 23.7483 44.2847 23.7483 41.8279 23.7529L41.5376 23.7506ZM45.0806 20.6831H45.3539C46.4517 20.6831 47.5495 20.6888 48.6473 20.6831C49.0152 20.6841 49.3828 20.6641 49.7485 20.6232C50.3021 20.5582 50.8369 20.3819 51.3206 20.1048C52.7697 19.2747 52.9741 17.1684 51.7035 16.0977C51.3455 15.8035 50.9289 15.589 50.4815 15.4686C49.9081 15.3184 49.3167 15.2485 48.7241 15.2608C47.5758 15.2608 46.4276 15.2608 45.2794 15.2608C45.2161 15.2608 45.1529 15.2687 45.0806 15.2743V20.6831ZM45.0896 6.98779C45.0433 7.40342 45.0614 11.9663 45.1099 12.13H45.3426C45.9706 12.13 46.5996 12.13 47.2276 12.13C47.4658 12.1305 47.7038 12.1161 47.9403 12.0871C48.5601 12.0197 49.1553 11.8069 49.6773 11.4659C50.5334 10.882 50.8677 10.044 50.7356 9.04559C50.6159 8.14206 50.0455 7.56266 49.2063 7.23852C48.7441 7.06927 48.2552 6.98435 47.763 6.98779C46.9464 6.98102 46.1298 6.98779 45.3144 6.98779H45.0896Z" fill="white"/>
<path d="M11.2489 20.683V15.2708C11.3212 15.2708 11.3833 15.2584 11.4465 15.2584C12.5952 15.2584 13.7449 15.2584 14.8947 15.2584C15.5836 15.2584 16.2658 15.3149 16.9208 15.5543C17.5985 15.8017 18.135 16.2094 18.4693 16.8645C18.9572 17.8233 18.7516 19.3774 17.4799 20.107C17.0018 20.38 16.4737 20.554 15.927 20.6186C15.552 20.6616 15.1749 20.6823 14.7975 20.6808C13.7065 20.6887 12.6144 20.6808 11.5222 20.6808L11.2489 20.683Z" fill="#040052"/>
<path d="M11.2476 12.1299V7.0012C11.3176 7.0012 11.3797 6.98877 11.4429 6.98764C12.281 6.98764 13.1179 6.97974 13.9559 6.98764C14.5062 6.9848 15.0511 7.09593 15.5563 7.31405C17.3634 8.12045 17.2199 10.3183 16.121 11.2535C15.6781 11.6162 15.1556 11.8689 14.5963 11.991C14.2106 12.0861 13.8144 12.1321 13.4172 12.1276C12.7813 12.1208 12.1466 12.1276 11.5107 12.1276L11.2476 12.1299Z" fill="#040052"/>
<path d="M45.0804 20.6831V15.272C45.1527 15.272 45.216 15.2585 45.2792 15.2585C46.4267 15.2585 47.5749 15.2585 48.7239 15.2585C49.3165 15.2461 49.9079 15.3161 50.4813 15.4663C50.9288 15.5867 51.3454 15.8012 51.7033 16.0954C52.9739 17.1683 52.7695 19.2724 51.3205 20.1025C50.8367 20.3796 50.302 20.5559 49.7483 20.6209C49.3827 20.6618 49.015 20.6818 48.6471 20.6808C47.5493 20.6887 46.4515 20.6808 45.3538 20.6808L45.0804 20.6831Z" fill="#040052"/>
<path d="M45.0899 6.98765H45.3158C46.1312 6.98765 46.9478 6.98765 47.7643 6.98765C48.2566 6.98421 48.7455 7.06913 49.2077 7.23838C50.0469 7.558 50.6172 8.13514 50.737 9.04545C50.8691 10.0439 50.5348 10.8819 49.6787 11.4658C49.1567 11.8067 48.5615 12.0196 47.9417 12.087C47.7052 12.116 47.4672 12.1303 47.229 12.1299C46.601 12.1299 45.972 12.1299 45.344 12.1299H45.1113C45.0616 11.9661 45.0436 7.40328 45.0899 6.98765Z" fill="#040052"/>
</g>
<defs>
<clipPath id="clip0_962_41273">
<rect width="97" height="27.6447" fill="white"/>
</clipPath>
</defs>
</svg>