<svg xmlns="http://www.w3.org/2000/svg" fill="none" viewBox="0 0.64 152 28">
<g clip-path="url(#clip0_962_41287)">
<path d="M151.999 21.8419C151.91 22.3652 151.85 22.8956 151.726 23.4106C151.046 26.2318 149.221 27.8675 146.405 28.3944C144.316 28.7842 142.226 28.7569 140.192 28.0698C137.994 27.3264 136.598 25.8414 136.171 23.5192C136.161 23.4634 136.16 23.4059 136.153 23.337C136.234 23.3311 136.302 23.3222 136.37 23.3222C138.042 23.3222 139.713 23.3222 141.386 23.3175C141.56 23.3175 141.659 23.3661 141.716 23.5322C141.755 23.6341 141.811 23.7284 141.882 23.8111C142.609 24.6963 143.586 24.774 144.614 24.6037C145.564 24.4465 146.132 23.8283 146.277 22.9063C146.39 22.1991 146.364 21.4705 146.396 20.7508C146.396 20.7271 146.369 20.7021 146.343 20.6565C146.287 20.6934 146.234 20.7349 146.185 20.7805C144.687 22.4583 142.805 22.8143 140.72 22.2732C138.354 21.6592 136.891 20.0543 136.256 17.7528C135.448 14.8207 135.69 11.9562 137.318 9.32783C139.056 6.52504 142.011 6.10498 144.318 6.99613C145.146 7.31533 145.779 7.88609 146.296 8.59806C146.355 8.68113 146.422 8.76004 146.486 8.84132L146.561 8.81818V7.06258H151.996L151.999 21.8419ZM146.635 14.5851C146.621 13.8216 146.507 13.0425 146.13 12.3306C145.811 11.723 145.363 11.2519 144.688 11.0478C143.509 10.6918 142.342 11.2674 141.836 12.5068C141.267 13.9129 141.296 15.341 141.854 16.7495C142.037 17.2234 142.358 17.6319 142.775 17.9225C143.929 18.7247 145.414 18.2874 146.116 16.9406C146.498 16.209 146.618 15.4241 146.635 14.5834V14.5851Z" fill="#040052"/>
<path d="M0 23.2597V0.654652C0.0902898 0.650499 0.166923 0.643379 0.242956 0.643379C3.97395 0.643379 7.70434 0.637447 11.4353 0.649906C12.7564 0.654653 14.0306 0.908589 15.2079 1.53987C16.867 2.42627 17.7562 3.84843 17.9594 5.68116C18.0329 6.39782 18.0087 7.12114 17.8875 7.83131C17.6665 9.16744 16.861 10.1132 15.6718 10.7385L15.2994 10.9361C15.433 11.0043 15.5013 11.0465 15.575 11.0749C17.6404 11.8771 18.7512 13.4351 19.028 15.5841C19.2478 17.2881 18.9383 18.9143 18.0045 20.3899C16.9947 21.9865 15.4782 22.7987 13.6593 23.0799C12.8969 23.1959 12.1269 23.2554 11.3557 23.2579C7.68414 23.2751 4.01315 23.2656 0.341557 23.2656L0 23.2597ZM6.18664 18.2818C6.22673 18.2965 6.2684 18.3065 6.31079 18.3115C7.78929 18.2896 9.27134 18.3192 10.7463 18.2273C12.2313 18.1347 12.9792 17.189 12.8847 15.701C12.8176 14.6686 12.2206 13.9519 11.2215 13.7359C10.9699 13.6847 10.7137 13.6594 10.457 13.6606C9.13294 13.6534 7.80829 13.657 6.48424 13.6606C6.3886 13.6606 6.29356 13.6701 6.18723 13.676L6.18664 18.2818ZM6.12724 9.47062C7.51485 9.47062 8.86623 9.50029 10.2152 9.46113C11.3142 9.42968 11.9664 8.75924 12.0567 7.6812C12.147 6.60316 11.6248 5.84195 10.6209 5.60937C10.3894 5.55854 10.1529 5.53307 9.91585 5.53343C8.7498 5.52631 7.58316 5.52987 6.41652 5.53343C6.32148 5.53343 6.22704 5.54351 6.12487 5.54945L6.12724 9.47062Z" fill="#040052"/>
<path d="M78.0609 23.2427H72.3923V22.8595C72.3923 20.0116 72.4024 17.1637 72.3834 14.3158C72.3797 13.7641 72.3123 13.2146 72.1826 12.6783C72.0204 12.0156 71.5696 11.5771 70.8758 11.4608C70.1077 11.3321 69.4359 11.513 68.9529 12.1645C68.486 12.7952 68.3411 13.5291 68.3387 14.2933C68.3286 17.1512 68.3328 20.0092 68.3322 22.8672V23.2398H62.5156V7.14627H67.9253V9.52366L68.0067 9.59011C69.0165 7.70932 70.5562 6.69892 72.6839 6.65145C74.8117 6.60399 76.4078 7.45717 77.3297 9.48094C77.4241 9.36228 77.4841 9.30295 77.5299 9.22938C78.7927 7.23942 80.6597 6.49126 82.9354 6.67163C85.4576 6.87216 87.0537 8.34713 87.5586 10.9233C87.6997 11.6407 87.7739 12.3696 87.7802 13.1007C87.8033 16.3936 87.7908 19.6864 87.7902 22.9799C87.7902 23.0576 87.7819 23.1353 87.7766 23.2362H82.121V22.8802C82.121 20.0128 82.1305 17.1447 82.1127 14.2772C82.11 13.7451 82.0454 13.2151 81.9202 12.6979C81.7539 12.025 81.3036 11.5765 80.592 11.462C79.8103 11.3362 79.1361 11.5296 78.6573 12.2013C78.2207 12.8124 78.074 13.5166 78.0698 14.2488C78.0586 16.3253 78.0633 18.4019 78.0621 20.4785C78.0621 21.2894 78.0621 22.1002 78.0621 22.9111L78.0609 23.2427Z" fill="#040052"/>
<path d="M94.8672 21.1554V23.232H89.454V0.660767H95.1024V8.84249C95.2266 8.72383 95.2902 8.67221 95.3401 8.6111C96.6362 7.00205 98.3695 6.44671 100.354 6.62055C102.926 6.84541 104.499 8.38623 105.445 10.6687C106.14 12.3454 106.301 14.1099 106.221 15.9046C106.148 17.5202 105.844 19.0782 105.087 20.5283C103.305 23.9386 99.415 24.2952 97.2765 23.3382C96.3539 22.9358 95.5802 22.2554 95.0638 21.3921C95.0282 21.3328 94.9955 21.2735 94.9587 21.2142C94.9486 21.2005 94.9278 21.194 94.8672 21.1554ZM100.4 15.4074C100.4 13.8055 100.184 12.7761 99.747 12.0096C98.8643 10.4515 96.831 10.3353 95.7891 11.7942C95.5893 12.076 95.4262 12.382 95.3038 12.7049C94.9082 13.7432 94.8625 14.8272 94.9652 15.9195C95.0371 16.6837 95.223 17.4188 95.6287 18.0821C96.1633 18.9548 96.9124 19.439 97.9638 19.3541C98.9576 19.2734 99.5439 18.6611 99.924 17.8026C100.304 16.9441 100.396 16.0132 100.4 15.4074Z" fill="#040052"/>
<path d="M123.147 18.2951C122.914 19.2772 122.479 20.2 121.869 21.0047C120.932 22.2269 119.692 23.0012 118.217 23.4005C116.151 23.9606 114.088 23.9617 112.064 23.2154C109.634 22.3195 108.037 20.5965 107.317 18.126C106.579 15.5943 106.699 13.0828 107.953 10.7262C109.238 8.3085 111.333 7.02873 114.025 6.71249C115.644 6.52264 117.229 6.69351 118.722 7.38649C120.848 8.37257 122.135 10.0819 122.828 12.2742C123.264 13.653 123.414 15.0746 123.396 16.5169C123.391 16.5841 123.383 16.651 123.372 16.7175H112.608C112.416 18.1301 113.652 19.6502 115.055 19.7623C115.709 19.8145 116.362 19.7754 116.886 19.3393C117.172 19.102 117.364 18.7501 117.607 18.4558C117.673 18.3763 117.766 18.263 117.848 18.2624C119.58 18.2523 121.311 18.2565 123.043 18.2624C123.079 18.2685 123.114 18.2795 123.147 18.2951V18.2951ZM117.721 13.4596C117.735 11.7176 116.625 10.5257 115.053 10.534C113.627 10.5417 112.672 11.6642 112.582 13.4596H117.721Z" fill="#040052"/>
<path d="M43.9825 15.5167C43.8714 16.9026 43.6207 18.2352 43.0118 19.4817C42.1285 21.289 40.7415 22.5592 38.8454 23.2297C36.6844 23.9944 34.4943 24.0051 32.3291 23.2611C29.9893 22.4578 28.4086 20.8452 27.6317 18.5057C26.8642 16.1972 26.8903 13.8702 27.7784 11.5949C28.6664 9.31955 30.3326 7.82738 32.6719 7.12075C34.5466 6.55473 36.445 6.5316 38.315 7.0982C41.285 7.99766 43.0314 10.0553 43.6777 13.0521C43.853 13.8578 43.885 14.6943 43.9825 15.5167ZM38.0423 15.2485C38.0423 14.9423 38.0637 14.6344 38.0382 14.33C37.9627 13.4294 37.8142 12.5436 37.3254 11.7569C36.3898 10.2457 34.4052 10.2688 33.5183 11.8079C33.3475 12.1081 33.2154 12.4286 33.1251 12.7619C32.7687 14.0583 32.7592 15.3784 32.9154 16.7039C33.0063 17.4752 33.1881 18.2204 33.6098 18.8872C34.3678 20.0845 35.9728 20.2631 36.9428 19.2272C37.2249 18.9121 37.4505 18.5508 37.6099 18.1593C38.0043 17.2313 38.0679 16.2417 38.0441 15.2485H38.0423Z" fill="#040052"/>
<path d="M61.365 15.2402C61.2991 16.5117 61.1239 17.7499 60.6487 18.93C59.7772 21.0932 58.2411 22.577 56.0255 23.3062C53.9731 23.9814 51.8917 23.9873 49.8436 23.2949C47.4081 22.4726 45.8043 20.7894 45.0321 18.3503C44.3787 16.288 44.368 14.193 45.0386 12.1348C45.9932 9.20447 48.058 7.48387 51.0649 6.89057C52.7845 6.55238 54.4994 6.62832 56.1579 7.21688C58.9088 8.19288 60.4788 10.2066 61.0769 13.0105C61.2332 13.7403 61.2724 14.4962 61.365 15.2402ZM55.5003 15.2699C55.5003 14.9637 55.5217 14.6552 55.4962 14.3514C55.4172 13.4306 55.2687 12.527 54.7638 11.7248C53.8341 10.2528 51.8626 10.2825 50.9882 11.7901C50.8157 12.0885 50.6816 12.4075 50.5891 12.7394C50.2255 14.0548 50.2166 15.3945 50.3794 16.7395C50.4708 17.5001 50.6556 18.2352 51.0732 18.892C51.8264 20.0757 53.4195 20.2566 54.3878 19.2403C54.6595 18.9414 54.879 18.5991 55.037 18.2275C55.4516 17.2907 55.5205 16.2832 55.5003 15.2699Z" fill="#040052"/>
<path d="M20.1228 0.660767H25.9097V23.2967H20.1228V0.660767Z" fill="#040052"/>
<path d="M130.127 23.3098H124.424V7.1368H129.83V9.85711L129.905 9.88856C129.971 9.80613 130.032 9.72038 130.089 9.63166C130.611 8.71737 131.249 7.90632 132.181 7.37709C133.114 6.84786 134.123 6.6752 135.187 6.81522C135.455 6.85023 135.563 6.96058 135.559 7.25605C135.541 8.69008 135.551 10.1241 135.551 11.5581V11.8839C135.194 11.8494 134.86 11.7782 134.532 11.7949C133.934 11.8251 133.315 11.8239 132.746 11.9829C131.261 12.3983 130.554 13.5255 130.28 14.9572C130.179 15.5313 130.131 16.1133 130.134 16.6962C130.118 18.7728 130.128 20.8493 130.128 22.9259L130.127 23.3098Z" fill="#040052"/>
</g>
<defs>
<clipPath id="clip0_962_41287">
<rect width="152" height="28" fill="white" transform="translate(0 0.644775)"/>
</clipPath>
</defs>
</svg>