<svg xmlns="http://www.w3.org/2000/svg" fill="none" viewBox="0 0.64 61 28">
<g clip-path="url(#clip0_962_41284)">
<path d="M19.3228 0.658984C19.3228 0.646362 14.0752 0.658984 14.0752 0.658984C6.30768 0.658984 0.0106201 6.9208 0.0106201 14.6449C0.0106201 22.369 6.30768 28.6308 14.0752 28.6308L23.9419 28.6226C26.4207 28.6226 28.4301 26.64 28.4301 24.175L28.4353 15.6446L35.255 26.3409C36.1773 27.729 37.7605 28.6447 39.5588 28.6447C42.4057 28.6447 44.7137 26.3497 44.7137 23.5187L44.7122 15.6446L51.5318 26.3408C52.4542 27.7289 54.0374 28.6446 55.8357 28.6446C58.6825 28.6446 60.9905 26.3496 60.9905 23.5186L60.989 0.646362H57.48V23.5188C57.48 24.4218 56.7439 25.1539 55.8358 25.1539C55.2682 25.1539 54.7678 24.8681 54.4724 24.433L42.334 5.42031C42.2588 5.31151 42.1506 5.2295 42.0251 5.18626C41.8997 5.14302 41.7636 5.14084 41.6368 5.18001C41.51 5.21919 41.3991 5.29768 41.3204 5.404C41.2417 5.51032 41.1993 5.6389 41.1993 5.77093L41.2032 23.5189C41.2032 24.4219 40.467 25.154 39.5589 25.154C38.9914 25.154 38.4911 24.8682 38.1955 24.4331L26.0572 5.42031C25.9819 5.31153 25.8737 5.22954 25.7482 5.18632C25.6228 5.14309 25.4867 5.14091 25.3599 5.18008C25.2331 5.21925 25.1223 5.29773 25.0435 5.40404C24.9648 5.51034 24.9223 5.6389 24.9223 5.77093L24.9196 24.1751C24.9196 24.7121 24.482 25.1472 23.942 25.1472L14.0753 25.1399C8.24653 25.1398 3.52124 20.441 3.52124 14.6449C3.52124 8.8488 8.24653 4.14987 14.0752 4.14987L19.3228 4.14602V0.658984Z" fill="#040052"/>
<path d="M19.8878 20.6569C20.0204 20.6569 20.1475 20.6045 20.2413 20.5113C20.3351 20.4181 20.3877 20.2916 20.3877 20.1597L20.3891 5.77068C20.389 2.93986 22.6969 0.644775 25.5438 0.644775C27.3485 0.644775 28.9367 1.56711 29.8576 2.96359L36.6536 13.5649L36.6659 5.77077C36.6659 2.93986 38.9737 0.644775 41.8206 0.644775C43.6253 0.644775 45.2135 1.56711 46.1344 2.96359L52.9304 13.5649V0.646297H56.4635L56.4572 23.5188C56.4572 23.6486 56.416 23.7751 56.3397 23.8805C56.2633 23.9858 56.1556 24.0645 56.0317 24.1056C55.9079 24.1466 55.7741 24.1479 55.6495 24.1092C55.5249 24.0705 55.4157 23.9938 55.3373 23.8899L43.184 4.85659C42.8886 4.42174 42.3882 4.13575 41.8206 4.13575C40.9125 4.13575 40.1764 4.86778 40.1764 5.77077L40.1803 23.5188C40.1803 23.6486 40.1391 23.7751 40.0628 23.8804C39.9864 23.9857 39.8787 24.0645 39.7548 24.1055C39.6309 24.1466 39.4972 24.1478 39.3726 24.1091C39.248 24.0704 39.1387 23.9937 39.0604 23.8899L26.9072 4.85659C26.6117 4.42174 26.1114 4.13575 25.5438 4.13575C24.6358 4.13575 23.8996 4.86778 23.8996 5.77077L23.907 23.6594C23.907 23.7913 23.8543 23.9177 23.7606 24.0109C23.6668 24.1042 23.5396 24.1566 23.4071 24.1566L14.0746 24.1547C8.81026 24.1547 4.5426 19.8797 4.5426 14.6449C4.5426 9.41007 8.81026 5.13497 14.0746 5.13497C14.0746 5.13497 19.3221 5.11465 19.3221 5.13497V8.66112L14.0746 8.65718C10.7491 8.65718 8.05322 11.338 8.05322 14.6449C8.05322 17.9517 10.7491 20.6637 14.0746 20.6637L19.8878 20.6569V20.6569Z" fill="#040052"/>
</g>
<defs>
<clipPath id="clip0_962_41284">
<rect width="61" height="28" fill="white" transform="translate(0 0.644775)"/>
</clipPath>
</defs>
</svg>