<svg width="522" height="359" viewBox="0 0 522 359" fill="none" xmlns="http://www.w3.org/2000/svg">
<g filter="url(#filter0_dd_1073_39468)">
<rect x="109.397" y="202.291" width="302.897" height="66.4895" rx="5.54079" fill="white"/>
<path d="M196.506 233.168C195.767 233.168 195.098 233.025 194.497 232.739C193.906 232.444 193.433 231.995 193.078 231.394C192.733 230.794 192.561 230.03 192.561 229.104V222.647H194.127V229.119C194.127 230.025 194.344 230.69 194.777 231.114C195.211 231.537 195.797 231.749 196.536 231.749C197.265 231.749 197.846 231.537 198.279 231.114C198.713 230.69 198.929 230.025 198.929 229.119V222.647H200.496V229.104C200.496 230.03 200.313 230.794 199.949 231.394C199.594 231.995 199.112 232.444 198.501 232.739C197.9 233.025 197.235 233.168 196.506 233.168ZM206.996 233.168C206.021 233.168 205.169 232.946 204.44 232.503C203.711 232.059 203.145 231.439 202.741 230.641C202.337 229.843 202.135 228.912 202.135 227.848C202.135 226.794 202.342 225.864 202.756 225.056C203.169 224.248 203.756 223.618 204.514 223.165C205.282 222.702 206.189 222.47 207.233 222.47C208.415 222.47 209.4 222.756 210.188 223.327C210.976 223.898 211.488 224.686 211.724 225.691H209.951C209.794 225.14 209.483 224.706 209.02 224.391C208.558 224.076 207.962 223.918 207.233 223.918C206.149 223.918 205.297 224.268 204.677 224.967C204.056 225.667 203.746 226.632 203.746 227.863C203.746 229.094 204.051 230.055 204.662 230.744C205.272 231.434 206.085 231.779 207.1 231.779C208.124 231.779 208.892 231.488 209.405 230.907C209.927 230.326 210.232 229.552 210.321 228.587H207.513V227.376H211.902V232.99H210.468L210.336 231.468C209.991 232.01 209.557 232.429 209.035 232.724C208.513 233.02 207.834 233.168 206.996 233.168ZM213.285 232.99L216.477 227.76L213.256 222.647H215.044L217.482 226.519L219.757 222.647H221.515L218.309 227.834L221.56 232.99H219.772L217.319 229.09L215.044 232.99H213.285Z" fill="#757575"/>
<path d="M196.506 255.33C195.767 255.33 195.098 255.187 194.497 254.901C193.906 254.606 193.433 254.157 193.078 253.557C192.733 252.956 192.561 252.192 192.561 251.266V244.81H194.127V251.281C194.127 252.187 194.344 252.852 194.777 253.276C195.211 253.699 195.797 253.911 196.536 253.911C197.265 253.911 197.846 253.699 198.279 253.276C198.713 252.852 198.929 252.187 198.929 251.281V244.81H200.496V251.266C200.496 252.192 200.313 252.956 199.949 253.557C199.594 254.157 199.112 254.606 198.501 254.901C197.9 255.187 197.235 255.33 196.506 255.33ZM205.445 252.906C205.061 252.906 204.706 252.862 204.381 252.773L203.746 253.394C203.854 253.463 203.987 253.522 204.145 253.571C204.302 253.621 204.524 253.665 204.809 253.704C205.095 253.744 205.484 253.783 205.977 253.823C206.952 253.911 207.656 254.148 208.09 254.532C208.523 254.906 208.74 255.408 208.74 256.039C208.74 256.472 208.622 256.881 208.385 257.265C208.159 257.659 207.799 257.974 207.307 258.211C206.824 258.457 206.203 258.58 205.445 258.58C204.42 258.58 203.588 258.383 202.948 257.989C202.317 257.605 202.002 257.019 202.002 256.231C202.002 255.926 202.081 255.62 202.239 255.315C202.406 255.019 202.667 254.739 203.022 254.473C202.815 254.384 202.633 254.29 202.475 254.192C202.327 254.084 202.194 253.975 202.076 253.867V253.512L203.347 252.212C202.775 251.72 202.49 251.074 202.49 250.276C202.49 249.794 202.603 249.355 202.83 248.961C203.066 248.558 203.406 248.237 203.849 248.001C204.292 247.765 204.824 247.646 205.445 247.646C205.859 247.646 206.243 247.706 206.597 247.824H209.331V248.858L208.031 248.932C208.267 249.336 208.385 249.784 208.385 250.276C208.385 250.769 208.267 251.212 208.031 251.606C207.804 252 207.469 252.315 207.026 252.552C206.592 252.788 206.065 252.906 205.445 252.906ZM205.445 251.68C205.898 251.68 206.262 251.562 206.538 251.326C206.824 251.079 206.967 250.734 206.967 250.291C206.967 249.838 206.824 249.493 206.538 249.257C206.262 249.021 205.898 248.902 205.445 248.902C204.982 248.902 204.608 249.021 204.322 249.257C204.046 249.493 203.908 249.838 203.908 250.291C203.908 250.734 204.046 251.079 204.322 251.326C204.608 251.562 204.982 251.68 205.445 251.68ZM203.48 256.083C203.48 256.507 203.667 256.822 204.041 257.029C204.415 257.246 204.883 257.354 205.445 257.354C205.987 257.354 206.425 257.236 206.76 256.999C207.095 256.773 207.262 256.467 207.262 256.083C207.262 255.798 207.149 255.551 206.922 255.344C206.696 255.147 206.267 255.024 205.637 254.975C205.164 254.945 204.745 254.901 204.381 254.842C204.036 255.029 203.8 255.231 203.672 255.448C203.544 255.665 203.48 255.876 203.48 256.083ZM213.21 255.33C212.589 255.33 212.077 255.226 211.673 255.019C211.27 254.813 210.969 254.542 210.772 254.207C210.575 253.862 210.477 253.488 210.477 253.084C210.477 252.375 210.752 251.813 211.304 251.399C211.856 250.986 212.644 250.779 213.668 250.779H215.589V250.646C215.589 250.075 215.431 249.646 215.116 249.36C214.811 249.075 214.412 248.932 213.919 248.932C213.486 248.932 213.107 249.04 212.782 249.257C212.466 249.464 212.274 249.774 212.205 250.188H210.639C210.688 249.656 210.866 249.203 211.171 248.828C211.486 248.444 211.88 248.154 212.353 247.957C212.836 247.75 213.363 247.646 213.934 247.646C214.958 247.646 215.751 247.917 216.313 248.459C216.874 248.991 217.155 249.72 217.155 250.646V255.152H215.796L215.663 253.896C215.456 254.3 215.155 254.64 214.761 254.916C214.367 255.192 213.85 255.33 213.21 255.33ZM213.52 254.059C213.944 254.059 214.298 253.96 214.584 253.763C214.88 253.557 215.106 253.286 215.264 252.951C215.431 252.616 215.535 252.247 215.574 251.843H213.831C213.21 251.843 212.767 251.951 212.501 252.168C212.245 252.384 212.117 252.655 212.117 252.98C212.117 253.315 212.24 253.581 212.486 253.778C212.742 253.965 213.087 254.059 213.52 254.059ZM218.981 255.152V247.824H220.37L220.488 249.109C220.715 248.656 221.045 248.301 221.478 248.045C221.922 247.779 222.429 247.646 223 247.646C223.887 247.646 224.581 247.922 225.083 248.474C225.596 249.025 225.852 249.848 225.852 250.941V255.152H224.3V251.104C224.3 249.685 223.719 248.976 222.557 248.976C221.976 248.976 221.493 249.183 221.109 249.597C220.735 250.01 220.547 250.602 220.547 251.37V255.152H218.981ZM231.036 255.33C230.326 255.33 229.701 255.162 229.159 254.827C228.617 254.492 228.194 254.034 227.889 253.453C227.583 252.872 227.43 252.212 227.43 251.473C227.43 250.734 227.583 250.079 227.889 249.508C228.194 248.927 228.617 248.474 229.159 248.149C229.711 247.814 230.341 247.646 231.05 247.646C231.632 247.646 232.139 247.76 232.572 247.986C233.016 248.213 233.36 248.533 233.607 248.947V244.514H235.173V255.152H233.769L233.607 254.015C233.37 254.359 233.045 254.665 232.631 254.931C232.218 255.197 231.686 255.33 231.036 255.33ZM231.316 253.97C231.986 253.97 232.533 253.739 232.956 253.276C233.39 252.813 233.607 252.217 233.607 251.488C233.607 250.749 233.39 250.153 232.956 249.7C232.533 249.237 231.986 249.006 231.316 249.006C230.647 249.006 230.095 249.237 229.662 249.7C229.228 250.153 229.011 250.749 229.011 251.488C229.011 251.971 229.11 252.399 229.307 252.773C229.504 253.148 229.775 253.443 230.12 253.66C230.474 253.867 230.873 253.97 231.316 253.97ZM239.63 255.33C239.009 255.33 238.497 255.226 238.093 255.019C237.689 254.813 237.389 254.542 237.192 254.207C236.995 253.862 236.896 253.488 236.896 253.084C236.896 252.375 237.172 251.813 237.724 251.399C238.275 250.986 239.063 250.779 240.088 250.779H242.009V250.646C242.009 250.075 241.851 249.646 241.536 249.36C241.23 249.075 240.832 248.932 240.339 248.932C239.906 248.932 239.526 249.04 239.201 249.257C238.886 249.464 238.694 249.774 238.625 250.188H237.059C237.108 249.656 237.285 249.203 237.591 248.828C237.906 248.444 238.3 248.154 238.773 247.957C239.255 247.75 239.782 247.646 240.354 247.646C241.378 247.646 242.171 247.917 242.733 248.459C243.294 248.991 243.575 249.72 243.575 250.646V255.152H242.215L242.083 253.896C241.876 254.3 241.575 254.64 241.181 254.916C240.787 255.192 240.27 255.33 239.63 255.33ZM239.94 254.059C240.364 254.059 240.718 253.96 241.004 253.763C241.299 253.557 241.526 253.286 241.684 252.951C241.851 252.616 241.954 252.247 241.994 251.843H240.25C239.63 251.843 239.187 251.951 238.921 252.168C238.664 252.384 238.536 252.655 238.536 252.98C238.536 253.315 238.66 253.581 238.906 253.778C239.162 253.965 239.507 254.059 239.94 254.059ZM245.401 255.152V247.824H246.79L246.908 249.109C247.135 248.656 247.465 248.301 247.898 248.045C248.341 247.779 248.849 247.646 249.42 247.646C250.306 247.646 251.001 247.922 251.503 248.474C252.015 249.025 252.272 249.848 252.272 250.941V255.152H250.72V251.104C250.72 249.685 250.139 248.976 248.977 248.976C248.395 248.976 247.913 249.183 247.529 249.597C247.154 250.01 246.967 250.602 246.967 251.37V255.152H245.401ZM261.311 255.33C260.553 255.33 259.888 255.197 259.316 254.931C258.745 254.665 258.297 254.286 257.972 253.793C257.657 253.3 257.494 252.714 257.484 252.035H259.139C259.149 252.586 259.341 253.054 259.715 253.438C260.09 253.823 260.617 254.015 261.296 254.015C261.897 254.015 262.365 253.872 262.7 253.586C263.045 253.291 263.217 252.916 263.217 252.463C263.217 252.099 263.133 251.803 262.966 251.577C262.808 251.35 262.587 251.163 262.301 251.015C262.025 250.867 261.705 250.734 261.341 250.616C260.976 250.498 260.592 250.37 260.188 250.232C259.39 249.966 258.789 249.621 258.386 249.198C257.992 248.774 257.795 248.218 257.795 247.528C257.785 246.947 257.918 246.44 258.194 246.006C258.479 245.573 258.873 245.238 259.376 245.002C259.888 244.755 260.484 244.632 261.163 244.632C261.833 244.632 262.419 244.755 262.922 245.002C263.434 245.248 263.833 245.593 264.118 246.036C264.404 246.469 264.552 246.977 264.562 247.558H262.907C262.907 247.292 262.838 247.041 262.7 246.804C262.562 246.558 262.36 246.356 262.094 246.198C261.828 246.041 261.503 245.962 261.119 245.962C260.627 245.952 260.218 246.075 259.893 246.331C259.577 246.588 259.42 246.942 259.42 247.395C259.42 247.799 259.538 248.109 259.774 248.326C260.011 248.543 260.336 248.725 260.75 248.873C261.163 249.011 261.636 249.173 262.168 249.36C262.68 249.528 263.138 249.73 263.542 249.966C263.946 250.203 264.266 250.513 264.503 250.897C264.749 251.281 264.872 251.769 264.872 252.36C264.872 252.882 264.739 253.369 264.473 253.823C264.207 254.266 263.808 254.63 263.276 254.916C262.744 255.192 262.089 255.33 261.311 255.33ZM266.525 255.152V244.514H268.091V249.006C268.338 248.582 268.678 248.252 269.111 248.016C269.554 247.77 270.042 247.646 270.574 247.646C271.45 247.646 272.14 247.922 272.642 248.474C273.145 249.025 273.396 249.848 273.396 250.941V255.152H271.844V251.104C271.844 249.685 271.278 248.976 270.145 248.976C269.554 248.976 269.062 249.183 268.668 249.597C268.284 250.01 268.091 250.602 268.091 251.37V255.152H266.525ZM276.127 246.435C275.831 246.435 275.585 246.346 275.388 246.169C275.201 245.982 275.107 245.75 275.107 245.474C275.107 245.199 275.201 244.972 275.388 244.795C275.585 244.608 275.831 244.514 276.127 244.514C276.422 244.514 276.664 244.608 276.851 244.795C277.048 244.972 277.146 245.199 277.146 245.474C277.146 245.75 277.048 245.982 276.851 246.169C276.664 246.346 276.422 246.435 276.127 246.435ZM275.344 255.152V247.824H276.91V255.152H275.344ZM278.978 255.152V244.514H280.544V255.152H278.978ZM282.527 255.152V244.514H284.093V255.152H282.527ZM286.963 246.435C286.668 246.435 286.421 246.346 286.224 246.169C286.037 245.982 285.944 245.75 285.944 245.474C285.944 245.199 286.037 244.972 286.224 244.795C286.421 244.608 286.668 244.514 286.963 244.514C287.259 244.514 287.5 244.608 287.687 244.795C287.884 244.972 287.983 245.199 287.983 245.474C287.983 245.75 287.884 245.982 287.687 246.169C287.5 246.346 287.259 246.435 286.963 246.435ZM286.18 255.152V247.824H287.746V255.152H286.18ZM289.814 255.152V247.824H291.203L291.321 249.109C291.548 248.656 291.878 248.301 292.311 248.045C292.754 247.779 293.261 247.646 293.833 247.646C294.719 247.646 295.414 247.922 295.916 248.474C296.428 249.025 296.684 249.848 296.684 250.941V255.152H295.133V251.104C295.133 249.685 294.552 248.976 293.39 248.976C292.808 248.976 292.326 249.183 291.942 249.597C291.567 250.01 291.38 250.602 291.38 251.37V255.152H289.814ZM301.528 252.906C301.144 252.906 300.79 252.862 300.465 252.773L299.829 253.394C299.938 253.463 300.071 253.522 300.228 253.571C300.386 253.621 300.607 253.665 300.893 253.704C301.179 253.744 301.568 253.783 302.06 253.823C303.036 253.911 303.74 254.148 304.173 254.532C304.607 254.906 304.823 255.408 304.823 256.039C304.823 256.472 304.705 256.881 304.469 257.265C304.242 257.659 303.883 257.974 303.39 258.211C302.908 258.457 302.287 258.58 301.528 258.58C300.504 258.58 299.672 258.383 299.031 257.989C298.401 257.605 298.086 257.019 298.086 256.231C298.086 255.926 298.165 255.62 298.322 255.315C298.49 255.019 298.751 254.739 299.105 254.473C298.898 254.384 298.716 254.29 298.559 254.192C298.411 254.084 298.278 253.975 298.16 253.867V253.512L299.43 252.212C298.859 251.72 298.573 251.074 298.573 250.276C298.573 249.794 298.687 249.355 298.913 248.961C299.15 248.558 299.489 248.237 299.933 248.001C300.376 247.765 300.908 247.646 301.528 247.646C301.942 247.646 302.326 247.706 302.681 247.824H305.414V248.858L304.114 248.932C304.351 249.336 304.469 249.784 304.469 250.276C304.469 250.769 304.351 251.212 304.114 251.606C303.888 252 303.553 252.315 303.109 252.552C302.676 252.788 302.149 252.906 301.528 252.906ZM301.528 251.68C301.982 251.68 302.346 251.562 302.622 251.326C302.908 251.079 303.05 250.734 303.05 250.291C303.05 249.838 302.908 249.493 302.622 249.257C302.346 249.021 301.982 248.902 301.528 248.902C301.066 248.902 300.691 249.021 300.406 249.257C300.13 249.493 299.992 249.838 299.992 250.291C299.992 250.734 300.13 251.079 300.406 251.326C300.691 251.562 301.066 251.68 301.528 251.68ZM299.563 256.083C299.563 256.507 299.751 256.822 300.125 257.029C300.499 257.246 300.967 257.354 301.528 257.354C302.07 257.354 302.509 257.236 302.844 256.999C303.178 256.773 303.346 256.467 303.346 256.083C303.346 255.798 303.233 255.551 303.006 255.344C302.779 255.147 302.351 255.024 301.721 254.975C301.248 254.945 300.829 254.901 300.465 254.842C300.12 255.029 299.883 255.231 299.755 255.448C299.627 255.665 299.563 255.876 299.563 256.083ZM309.737 255.33C308.811 255.33 308.048 255.103 307.447 254.65C306.846 254.197 306.501 253.596 306.412 252.847H307.993C308.072 253.182 308.259 253.473 308.555 253.719C308.85 253.956 309.24 254.074 309.722 254.074C310.195 254.074 310.54 253.975 310.756 253.778C310.973 253.581 311.082 253.355 311.082 253.099C311.082 252.724 310.929 252.473 310.623 252.345C310.328 252.207 309.914 252.084 309.382 251.976C308.969 251.887 308.555 251.769 308.141 251.621C307.737 251.473 307.397 251.266 307.122 251C306.856 250.725 306.723 250.355 306.723 249.892C306.723 249.252 306.969 248.72 307.462 248.297C307.954 247.863 308.644 247.646 309.53 247.646C310.348 247.646 311.008 247.843 311.51 248.237C312.022 248.631 312.323 249.188 312.411 249.907H310.904C310.855 249.592 310.707 249.346 310.461 249.168C310.225 248.991 309.904 248.902 309.501 248.902C309.107 248.902 308.801 248.986 308.584 249.154C308.368 249.311 308.259 249.518 308.259 249.774C308.259 250.03 308.407 250.232 308.703 250.38C309.008 250.528 309.407 250.661 309.899 250.779C310.392 250.887 310.845 251.015 311.259 251.163C311.682 251.301 312.022 251.508 312.278 251.784C312.534 252.059 312.662 252.463 312.662 252.995C312.672 253.665 312.411 254.221 311.879 254.665C311.357 255.108 310.643 255.33 309.737 255.33Z" fill="#1C223C"/>
<path d="M230.593 232.99V230.922H225.407V229.681L230.342 222.647H232.144V229.562H233.592V230.922H232.144V232.99H230.593ZM227.106 229.562H230.682V224.376L227.106 229.562ZM238.691 233.168C237.962 233.168 237.331 233.039 236.799 232.783C236.267 232.517 235.844 232.158 235.529 231.705C235.223 231.242 235.036 230.72 234.967 230.139H236.504C236.602 230.631 236.849 231.04 237.243 231.365C237.637 231.68 238.124 231.838 238.705 231.838C239.139 231.838 239.513 231.734 239.828 231.527C240.144 231.311 240.39 231.025 240.567 230.67C240.744 230.316 240.833 229.917 240.833 229.474C240.833 228.774 240.636 228.218 240.242 227.804C239.848 227.38 239.351 227.169 238.75 227.169C238.238 227.169 237.799 227.292 237.435 227.538C237.07 227.775 236.804 228.075 236.637 228.439H235.145L236.031 222.647H241.616V224.022H237.213L236.681 226.785C236.908 226.528 237.218 226.317 237.612 226.149C238.016 225.972 238.469 225.883 238.971 225.883C239.671 225.883 240.272 226.046 240.774 226.371C241.276 226.686 241.66 227.115 241.926 227.656C242.202 228.198 242.34 228.799 242.34 229.459C242.34 230.148 242.192 230.774 241.897 231.335C241.601 231.897 241.178 232.345 240.626 232.68C240.084 233.005 239.439 233.168 238.691 233.168ZM243.259 234.734L244.116 231.247H245.668L244.308 234.734H243.259ZM251.343 233.168C250.407 233.168 249.6 232.946 248.92 232.503C248.25 232.05 247.733 231.424 247.368 230.626C247.014 229.818 246.837 228.883 246.837 227.819C246.837 226.755 247.014 225.824 247.368 225.026C247.733 224.219 248.25 223.593 248.92 223.15C249.6 222.697 250.407 222.47 251.343 222.47C252.279 222.47 253.082 222.697 253.751 223.15C254.421 223.593 254.933 224.219 255.288 225.026C255.653 225.824 255.835 226.755 255.835 227.819C255.835 228.883 255.653 229.818 255.288 230.626C254.933 231.424 254.421 232.05 253.751 232.503C253.082 232.946 252.279 233.168 251.343 233.168ZM251.343 231.764C251.904 231.764 252.402 231.606 252.835 231.291C253.279 230.976 253.623 230.523 253.87 229.932C254.116 229.341 254.239 228.636 254.239 227.819C254.239 227.001 254.116 226.297 253.87 225.706C253.623 225.115 253.279 224.662 252.835 224.347C252.402 224.031 251.904 223.874 251.343 223.874C250.772 223.874 250.269 224.031 249.836 224.347C249.403 224.662 249.063 225.115 248.816 225.706C248.57 226.297 248.447 227.001 248.447 227.819C248.447 228.636 248.57 229.341 248.816 229.932C249.063 230.523 249.403 230.976 249.836 231.291C250.269 231.606 250.772 231.764 251.343 231.764ZM261.718 233.168C260.782 233.168 259.974 232.946 259.294 232.503C258.625 232.05 258.107 231.424 257.743 230.626C257.388 229.818 257.211 228.883 257.211 227.819C257.211 226.755 257.388 225.824 257.743 225.026C258.107 224.219 258.625 223.593 259.294 223.15C259.974 222.697 260.782 222.47 261.718 222.47C262.653 222.47 263.456 222.697 264.126 223.15C264.796 223.593 265.308 224.219 265.663 225.026C266.027 225.824 266.209 226.755 266.209 227.819C266.209 228.883 266.027 229.818 265.663 230.626C265.308 231.424 264.796 232.05 264.126 232.503C263.456 232.946 262.653 233.168 261.718 233.168ZM261.718 231.764C262.279 231.764 262.776 231.606 263.21 231.291C263.653 230.976 263.998 230.523 264.244 229.932C264.49 229.341 264.614 228.636 264.614 227.819C264.614 227.001 264.49 226.297 264.244 225.706C263.998 225.115 263.653 224.662 263.21 224.347C262.776 224.031 262.279 223.874 261.718 223.874C261.146 223.874 260.644 224.031 260.21 224.347C259.777 224.662 259.437 225.115 259.191 225.706C258.945 226.297 258.822 227.001 258.822 227.819C258.822 228.636 258.945 229.341 259.191 229.932C259.437 230.523 259.777 230.976 260.21 231.291C260.644 231.606 261.146 231.764 261.718 231.764ZM272.092 233.168C271.156 233.168 270.349 232.946 269.669 232.503C268.999 232.05 268.482 231.424 268.118 230.626C267.763 229.818 267.586 228.883 267.586 227.819C267.586 226.755 267.763 225.824 268.118 225.026C268.482 224.219 268.999 223.593 269.669 223.15C270.349 222.697 271.156 222.47 272.092 222.47C273.028 222.47 273.831 222.697 274.501 223.15C275.17 223.593 275.683 224.219 276.037 225.026C276.402 225.824 276.584 226.755 276.584 227.819C276.584 228.883 276.402 229.818 276.037 230.626C275.683 231.424 275.17 232.05 274.501 232.503C273.831 232.946 273.028 233.168 272.092 233.168ZM272.092 231.764C272.654 231.764 273.151 231.606 273.584 231.291C274.028 230.976 274.372 230.523 274.619 229.932C274.865 229.341 274.988 228.636 274.988 227.819C274.988 227.001 274.865 226.297 274.619 225.706C274.372 225.115 274.028 224.662 273.584 224.347C273.151 224.031 272.654 223.874 272.092 223.874C271.521 223.874 271.018 224.031 270.585 224.347C270.152 224.662 269.812 225.115 269.566 225.706C269.319 226.297 269.196 227.001 269.196 227.819C269.196 228.636 269.319 229.341 269.566 229.932C269.812 230.523 270.152 230.976 270.585 231.291C271.018 231.606 271.521 231.764 272.092 231.764ZM278.299 233.079C278.004 233.079 277.758 232.985 277.561 232.798C277.373 232.601 277.28 232.37 277.28 232.104C277.28 231.828 277.373 231.596 277.561 231.409C277.758 231.212 278.004 231.114 278.299 231.114C278.595 231.114 278.836 231.212 279.023 231.409C279.211 231.596 279.304 231.828 279.304 232.104C279.304 232.37 279.211 232.601 279.023 232.798C278.836 232.985 278.595 233.079 278.299 233.079ZM283.966 233.168C283.286 233.168 282.705 233.035 282.223 232.769C281.74 232.503 281.361 232.148 281.085 231.705C280.819 231.262 280.656 230.779 280.597 230.257H282.06C282.149 230.769 282.361 231.163 282.695 231.439C283.03 231.715 283.459 231.853 283.981 231.853C284.7 231.853 285.291 231.518 285.754 230.848C286.227 230.168 286.478 229.129 286.508 227.73C286.271 228.164 285.902 228.533 285.399 228.838C284.907 229.144 284.336 229.296 283.685 229.296C283.104 229.296 282.558 229.158 282.045 228.883C281.533 228.607 281.119 228.223 280.804 227.73C280.489 227.228 280.331 226.637 280.331 225.957C280.331 225.356 280.479 224.79 280.775 224.258C281.07 223.726 281.484 223.298 282.016 222.972C282.558 222.638 283.198 222.47 283.937 222.47C284.695 222.47 285.335 222.613 285.857 222.899C286.379 223.184 286.798 223.564 287.113 224.036C287.429 224.509 287.655 225.041 287.793 225.632C287.941 226.223 288.015 226.829 288.015 227.449C288.015 228.592 287.852 229.592 287.527 230.449C287.212 231.306 286.754 231.976 286.153 232.458C285.552 232.931 284.823 233.168 283.966 233.168ZM284.04 227.952C284.454 227.952 284.823 227.858 285.148 227.671C285.473 227.484 285.729 227.238 285.917 226.932C286.114 226.617 286.212 226.272 286.212 225.898C286.212 225.494 286.114 225.14 285.917 224.834C285.729 224.519 285.468 224.273 285.133 224.095C284.808 223.918 284.439 223.829 284.025 223.829C283.612 223.829 283.242 223.918 282.917 224.095C282.592 224.273 282.331 224.519 282.134 224.834C281.947 225.14 281.853 225.489 281.853 225.883C281.853 226.514 282.06 227.016 282.474 227.39C282.888 227.765 283.41 227.952 284.04 227.952ZM293.173 233.168C292.484 233.168 291.858 233.044 291.297 232.798C290.745 232.542 290.302 232.187 289.967 231.734C289.642 231.281 289.479 230.749 289.479 230.139C289.479 229.518 289.652 228.961 289.997 228.469C290.351 227.976 290.819 227.642 291.4 227.464C290.878 227.257 290.474 226.957 290.189 226.563C289.903 226.159 289.76 225.716 289.76 225.233C289.76 224.731 289.893 224.273 290.159 223.859C290.425 223.435 290.809 223.101 291.312 222.854C291.824 222.598 292.444 222.47 293.173 222.47C293.902 222.47 294.518 222.598 295.02 222.854C295.532 223.101 295.922 223.435 296.188 223.859C296.453 224.273 296.586 224.731 296.586 225.233C296.586 225.706 296.439 226.149 296.143 226.563C295.858 226.967 295.454 227.267 294.932 227.464C295.513 227.651 295.976 227.991 296.321 228.484C296.675 228.966 296.852 229.518 296.852 230.139C296.852 230.749 296.69 231.281 296.365 231.734C296.04 232.187 295.597 232.542 295.035 232.798C294.483 233.044 293.863 233.168 293.173 233.168ZM293.173 226.962C293.745 226.962 294.193 226.814 294.518 226.519C294.853 226.223 295.02 225.844 295.02 225.381C295.02 224.859 294.858 224.46 294.533 224.184C294.208 223.908 293.754 223.77 293.173 223.77C292.592 223.77 292.139 223.908 291.814 224.184C291.489 224.46 291.326 224.859 291.326 225.381C291.326 225.844 291.489 226.223 291.814 226.519C292.139 226.814 292.592 226.962 293.173 226.962ZM293.173 231.838C293.883 231.838 294.414 231.67 294.769 231.335C295.124 230.991 295.301 230.552 295.301 230.02C295.301 229.429 295.109 228.976 294.725 228.661C294.35 228.336 293.833 228.173 293.173 228.173C292.513 228.173 291.991 228.336 291.607 228.661C291.223 228.976 291.031 229.429 291.031 230.02C291.031 230.552 291.208 230.991 291.563 231.335C291.927 231.67 292.464 231.838 293.173 231.838Z" fill="#757575"/>
<g clip-path="url(#clip0_1073_39468)">
<path d="M165.906 247.333C169.073 243.795 171 239.123 171 234C171 228.877 169.073 224.205 165.906 220.667L151 219.218L136.094 220.667C132.927 224.205 131 228.877 131 234C131 239.123 132.927 243.795 136.094 247.333L151 248.783L165.906 247.333Z" fill="#FFDA44"/>
<path d="M136.094 220.667H165.906C162.244 216.575 156.923 214 151 214C145.077 214 139.756 216.575 136.094 220.667Z" fill="black"/>
<path d="M131 234L151 235.739L171 234C171 231.662 170.598 229.419 169.86 227.333H132.14C131.402 229.419 131 231.662 131 234V234Z" fill="#D80027"/>
<path d="M132.14 240.667H169.86C170.598 238.581 171 236.338 171 234H131C131 236.338 131.402 238.581 132.14 240.667Z" fill="black"/>
<path d="M165.906 247.333H136.094C139.756 251.425 145.077 254 151 254C156.923 254 162.244 251.425 165.906 247.333Z" fill="#D80027"/>
<path d="M157.674 234C157.674 237.686 154.686 240.674 151 240.674C147.314 240.674 144.326 237.686 144.326 234C144.326 230.314 147.314 227.326 151 227.326C154.686 227.326 157.674 230.314 157.674 234Z" fill="#F0F0F0"/>
<path d="M153.445 234.34L151 233.281C151 233.281 151.572 231.382 151.603 231.252C151.625 231.157 151.637 231.058 151.637 230.957C151.637 230.596 151.491 230.27 151.255 230.034L151.869 229.419C151.476 229.026 150.933 228.783 150.332 228.783C149.732 228.783 149.188 229.026 148.795 229.419L149.41 230.034C149.174 230.27 149.028 230.596 149.028 230.957C149.028 231.088 149.048 231.215 149.084 231.335L148.158 232.261H149.841C149.841 232.261 149.145 233.306 148.765 234.164C148.386 235.022 148.771 236.069 149.648 236.459L150.156 236.685L151 237.478V238.348L150.13 239.217H151.87V237.478L152.663 236.685H154.304C154.312 236.668 154.321 236.652 154.328 236.636C154.718 235.758 154.323 234.73 153.445 234.34Z" fill="black"/>
</g>
</g>
<g filter="url(#filter1_dd_1073_39468)">
<rect x="109.397" y="282.631" width="302.897" height="66.4895" rx="5.54079" fill="white"/>
<path d="M192.635 314.406V304.063H194.201L199.387 311.85V304.063H200.953V314.406H199.387L194.201 306.62V314.406H192.635ZM207.544 314.584C206.569 314.584 205.717 314.362 204.988 313.919C204.259 313.475 203.693 312.855 203.289 312.057C202.885 311.259 202.683 310.328 202.683 309.264C202.683 308.21 202.89 307.28 203.304 306.472C203.717 305.664 204.303 305.034 205.062 304.581C205.83 304.118 206.736 303.886 207.781 303.886C208.963 303.886 209.948 304.172 210.736 304.743C211.524 305.314 212.036 306.102 212.272 307.107H210.499C210.342 306.556 210.031 306.122 209.568 305.807C209.105 305.492 208.509 305.334 207.781 305.334C206.697 305.334 205.845 305.684 205.224 306.383C204.604 307.083 204.294 308.048 204.294 309.279C204.294 310.51 204.599 311.471 205.21 312.16C205.82 312.85 206.633 313.195 207.648 313.195C208.672 313.195 209.44 312.904 209.953 312.323C210.475 311.742 210.78 310.968 210.869 310.003H208.061V308.792H212.45V314.406H211.016L210.883 312.884C210.539 313.426 210.105 313.845 209.583 314.14C209.061 314.436 208.381 314.584 207.544 314.584ZM214.35 314.406V304.063H215.917L221.103 311.85V304.063H222.669V314.406H221.103L215.917 306.62V314.406H214.35Z" fill="#757575"/>
<path d="M192.635 336.57V326.228H194.201L199.387 334.014V326.228H200.953V336.57H199.387L194.201 328.784V336.57H192.635ZM203.88 327.853C203.584 327.853 203.338 327.764 203.141 327.587C202.954 327.4 202.86 327.168 202.86 326.892C202.86 326.617 202.954 326.39 203.141 326.213C203.338 326.026 203.584 325.932 203.88 325.932C204.175 325.932 204.417 326.026 204.604 326.213C204.801 326.39 204.899 326.617 204.899 326.892C204.899 327.168 204.801 327.4 204.604 327.587C204.417 327.764 204.175 327.853 203.88 327.853ZM203.097 336.57V329.242H204.663V336.57H203.097ZM209.73 334.324C209.346 334.324 208.991 334.28 208.666 334.191L208.031 334.812C208.139 334.881 208.272 334.94 208.43 334.989C208.587 335.039 208.809 335.083 209.094 335.122C209.38 335.162 209.769 335.201 210.262 335.241C211.237 335.329 211.941 335.566 212.375 335.95C212.808 336.324 213.025 336.826 213.025 337.457C213.025 337.89 212.907 338.299 212.67 338.683C212.444 339.077 212.084 339.392 211.592 339.629C211.109 339.875 210.488 339.998 209.73 339.998C208.705 339.998 207.873 339.801 207.233 339.407C206.602 339.023 206.287 338.437 206.287 337.649C206.287 337.344 206.366 337.038 206.524 336.733C206.691 336.437 206.952 336.157 207.307 335.891C207.1 335.802 206.918 335.708 206.76 335.61C206.612 335.502 206.479 335.393 206.361 335.285V334.93L207.632 333.63C207.06 333.137 206.775 332.492 206.775 331.694C206.775 331.212 206.888 330.773 207.115 330.379C207.351 329.976 207.691 329.655 208.134 329.419C208.577 329.183 209.109 329.064 209.73 329.064C210.144 329.064 210.528 329.123 210.882 329.242H213.616V330.276L212.316 330.35C212.552 330.754 212.67 331.202 212.67 331.694C212.67 332.187 212.552 332.63 212.316 333.024C212.089 333.418 211.754 333.733 211.311 333.97C210.877 334.206 210.35 334.324 209.73 334.324ZM209.73 333.098C210.183 333.098 210.547 332.98 210.823 332.743C211.109 332.497 211.252 332.152 211.252 331.709C211.252 331.256 211.109 330.911 210.823 330.675C210.547 330.439 210.183 330.32 209.73 330.32C209.267 330.32 208.893 330.439 208.607 330.675C208.331 330.911 208.193 331.256 208.193 331.709C208.193 332.152 208.331 332.497 208.607 332.743C208.893 332.98 209.267 333.098 209.73 333.098ZM207.765 337.501C207.765 337.925 207.952 338.24 208.326 338.447C208.7 338.664 209.168 338.772 209.73 338.772C210.272 338.772 210.71 338.654 211.045 338.417C211.38 338.191 211.547 337.885 211.547 337.501C211.547 337.216 211.434 336.969 211.207 336.762C210.981 336.565 210.552 336.442 209.922 336.393C209.449 336.363 209.03 336.319 208.666 336.26C208.321 336.447 208.085 336.649 207.957 336.866C207.829 337.083 207.765 337.294 207.765 337.501ZM218.152 336.748C217.433 336.748 216.793 336.59 216.231 336.275C215.68 335.95 215.246 335.502 214.931 334.93C214.616 334.359 214.458 333.694 214.458 332.936C214.458 332.167 214.611 331.492 214.916 330.911C215.231 330.33 215.665 329.877 216.216 329.552C216.778 329.227 217.428 329.064 218.167 329.064C218.886 329.064 219.511 329.227 220.043 329.552C220.575 329.867 220.989 330.291 221.284 330.823C221.58 331.355 221.728 331.941 221.728 332.581C221.728 332.679 221.723 332.788 221.713 332.906C221.713 333.014 221.708 333.137 221.698 333.275H215.995C216.044 333.985 216.276 334.526 216.689 334.901C217.113 335.265 217.6 335.447 218.152 335.447C218.595 335.447 218.965 335.349 219.26 335.152C219.566 334.945 219.792 334.669 219.94 334.324H221.506C221.309 335.014 220.915 335.59 220.324 336.053C219.743 336.516 219.019 336.748 218.152 336.748ZM218.152 330.35C217.63 330.35 217.167 330.507 216.763 330.823C216.359 331.128 216.113 331.591 216.024 332.212H220.161C220.132 331.64 219.93 331.187 219.556 330.852C219.181 330.517 218.714 330.35 218.152 330.35ZM223.353 336.57V329.242H224.756L224.889 330.631C225.146 330.148 225.5 329.769 225.953 329.493C226.416 329.207 226.973 329.064 227.623 329.064V330.704H227.194C226.761 330.704 226.372 330.778 226.027 330.926C225.692 331.064 225.421 331.305 225.214 331.65C225.017 331.985 224.919 332.453 224.919 333.054V336.57H223.353ZM229.852 327.853C229.557 327.853 229.31 327.764 229.113 327.587C228.926 327.4 228.833 327.168 228.833 326.892C228.833 326.617 228.926 326.39 229.113 326.213C229.31 326.026 229.557 325.932 229.852 325.932C230.148 325.932 230.389 326.026 230.576 326.213C230.773 326.39 230.872 326.617 230.872 326.892C230.872 327.168 230.773 327.4 230.576 327.587C230.389 327.764 230.148 327.853 229.852 327.853ZM229.069 336.57V329.242H230.635V336.57H229.069ZM235.185 336.748C234.565 336.748 234.052 336.644 233.648 336.437C233.245 336.23 232.944 335.96 232.747 335.625C232.55 335.28 232.452 334.906 232.452 334.502C232.452 333.793 232.727 333.231 233.279 332.817C233.831 332.404 234.619 332.197 235.643 332.197H237.564V332.064C237.564 331.492 237.406 331.064 237.091 330.778C236.786 330.493 236.387 330.35 235.894 330.35C235.461 330.35 235.082 330.458 234.757 330.675C234.441 330.882 234.249 331.192 234.18 331.606H232.614C232.663 331.074 232.841 330.621 233.146 330.246C233.461 329.862 233.855 329.572 234.328 329.375C234.811 329.168 235.338 329.064 235.909 329.064C236.934 329.064 237.726 329.335 238.288 329.877C238.849 330.409 239.13 331.138 239.13 332.064V336.57H237.771L237.638 335.314C237.431 335.718 237.131 336.058 236.737 336.334C236.343 336.61 235.825 336.748 235.185 336.748ZM235.495 335.477C235.919 335.477 236.274 335.378 236.559 335.181C236.855 334.975 237.081 334.704 237.239 334.369C237.406 334.034 237.51 333.664 237.549 333.261H235.806C235.185 333.261 234.742 333.369 234.476 333.586C234.22 333.802 234.092 334.073 234.092 334.398C234.092 334.733 234.215 334.999 234.461 335.196C234.717 335.383 235.062 335.477 235.495 335.477ZM240.956 336.57V329.242H242.345L242.463 330.527C242.69 330.074 243.02 329.719 243.453 329.463C243.897 329.197 244.404 329.064 244.975 329.064C245.862 329.064 246.556 329.34 247.059 329.892C247.571 330.443 247.827 331.266 247.827 332.359V336.57H246.275V332.522C246.275 331.103 245.694 330.394 244.532 330.394C243.951 330.394 243.468 330.601 243.084 331.015C242.71 331.428 242.523 332.019 242.523 332.788V336.57H240.956ZM253.453 336.57V326.228H255.02L260.206 334.014V326.228H261.772V336.57H260.206L255.02 328.784V336.57H253.453ZM266.294 336.748C265.674 336.748 265.162 336.644 264.758 336.437C264.354 336.23 264.053 335.96 263.856 335.625C263.659 335.28 263.561 334.906 263.561 334.502C263.561 333.793 263.837 333.231 264.388 332.817C264.94 332.404 265.728 332.197 266.752 332.197H268.673V332.064C268.673 331.492 268.516 331.064 268.2 330.778C267.895 330.493 267.496 330.35 267.004 330.35C266.57 330.35 266.191 330.458 265.866 330.675C265.551 330.882 265.359 331.192 265.29 331.606H263.723C263.773 331.074 263.95 330.621 264.255 330.246C264.571 329.862 264.965 329.572 265.437 329.375C265.92 329.168 266.447 329.064 267.018 329.064C268.043 329.064 268.836 329.335 269.397 329.877C269.959 330.409 270.239 331.138 270.239 332.064V336.57H268.88L268.747 335.314C268.54 335.718 268.24 336.058 267.846 336.334C267.452 336.61 266.935 336.748 266.294 336.748ZM266.605 335.477C267.028 335.477 267.383 335.378 267.668 335.181C267.964 334.975 268.191 334.704 268.348 334.369C268.516 334.034 268.619 333.664 268.658 333.261H266.915C266.294 333.261 265.851 333.369 265.585 333.586C265.329 333.802 265.201 334.073 265.201 334.398C265.201 334.733 265.324 334.999 265.57 335.196C265.826 335.383 266.171 335.477 266.605 335.477ZM272.952 327.853C272.657 327.853 272.41 327.764 272.213 327.587C272.026 327.4 271.933 327.168 271.933 326.892C271.933 326.617 272.026 326.39 272.213 326.213C272.41 326.026 272.657 325.932 272.952 325.932C273.248 325.932 273.489 326.026 273.676 326.213C273.873 326.39 273.972 326.617 273.972 326.892C273.972 327.168 273.873 327.4 273.676 327.587C273.489 327.764 273.248 327.853 272.952 327.853ZM272.169 336.57V329.242H273.735V336.57H272.169ZM275.803 336.57V329.242H277.206L277.339 330.631C277.595 330.148 277.95 329.769 278.403 329.493C278.866 329.207 279.423 329.064 280.073 329.064V330.704H279.644C279.211 330.704 278.822 330.778 278.477 330.926C278.142 331.064 277.871 331.305 277.664 331.65C277.467 331.985 277.369 332.453 277.369 333.054V336.57H275.803ZM283.898 336.748C283.277 336.748 282.765 336.644 282.361 336.437C281.957 336.23 281.657 335.96 281.46 335.625C281.263 335.28 281.164 334.906 281.164 334.502C281.164 333.793 281.44 333.231 281.992 332.817C282.543 332.404 283.332 332.197 284.356 332.197H286.277V332.064C286.277 331.492 286.119 331.064 285.804 330.778C285.499 330.493 285.1 330.35 284.607 330.35C284.174 330.35 283.794 330.458 283.469 330.675C283.154 330.882 282.962 331.192 282.893 331.606H281.327C281.376 331.074 281.554 330.621 281.859 330.246C282.174 329.862 282.568 329.572 283.041 329.375C283.524 329.168 284.051 329.064 284.622 329.064C285.646 329.064 286.439 329.335 287.001 329.877C287.562 330.409 287.843 331.138 287.843 332.064V336.57H286.484L286.351 335.314C286.144 335.718 285.843 336.058 285.449 336.334C285.055 336.61 284.538 336.748 283.898 336.748ZM284.208 335.477C284.632 335.477 284.986 335.378 285.272 335.181C285.568 334.975 285.794 334.704 285.952 334.369C286.119 334.034 286.223 333.664 286.262 333.261H284.518C283.898 333.261 283.455 333.369 283.189 333.586C282.933 333.802 282.805 334.073 282.805 334.398C282.805 334.733 282.928 334.999 283.174 335.196C283.43 335.383 283.775 335.477 284.208 335.477Z" fill="#1C223C"/>
<path d="M229.189 314.584C228.519 314.584 227.908 314.465 227.357 314.229C226.815 313.983 226.381 313.613 226.056 313.121C225.731 312.628 225.559 312.013 225.539 311.274H227.091C227.11 311.825 227.298 312.293 227.652 312.678C228.017 313.052 228.529 313.239 229.189 313.239C229.819 313.239 230.302 313.067 230.637 312.722C230.972 312.367 231.139 311.929 231.139 311.407C231.139 310.776 230.913 310.309 230.46 310.003C230.016 309.698 229.47 309.545 228.819 309.545H228.051V308.245H228.834C229.415 308.245 229.883 308.107 230.238 307.831C230.602 307.555 230.785 307.166 230.785 306.664C230.785 306.24 230.642 305.896 230.356 305.63C230.08 305.364 229.686 305.231 229.174 305.231C228.642 305.231 228.224 305.388 227.918 305.704C227.613 306.009 227.445 306.393 227.416 306.856H225.864C225.884 306.255 226.032 305.733 226.308 305.29C226.593 304.847 226.982 304.502 227.475 304.256C227.967 304.009 228.534 303.886 229.174 303.886C229.864 303.886 230.44 304.009 230.903 304.256C231.376 304.492 231.73 304.817 231.967 305.231C232.213 305.635 232.336 306.078 232.336 306.56C232.336 307.112 232.183 307.595 231.878 308.008C231.573 308.422 231.164 308.698 230.652 308.836C231.243 308.964 231.73 309.255 232.114 309.708C232.499 310.151 232.691 310.727 232.691 311.436C232.691 312.008 232.558 312.535 232.292 313.017C232.026 313.49 231.632 313.869 231.11 314.155C230.588 314.441 229.947 314.584 229.189 314.584ZM233.692 316.15L234.549 312.663H236.101L234.741 316.15H233.692ZM238.363 314.406L242.367 305.408H236.989V304.063H243.978V305.201L240.003 314.406H238.363ZM249.055 314.584C248.296 314.584 247.656 314.441 247.134 314.155C246.612 313.869 246.188 313.49 245.863 313.017C245.548 312.545 245.321 312.013 245.184 311.422C245.046 310.831 244.977 310.225 244.977 309.604C244.977 308.462 245.134 307.462 245.45 306.605C245.775 305.748 246.238 305.083 246.838 304.61C247.439 304.127 248.168 303.886 249.025 303.886C249.705 303.886 250.286 304.019 250.769 304.285C251.251 304.551 251.626 304.906 251.892 305.349C252.167 305.792 252.335 306.275 252.394 306.797H250.931C250.843 306.285 250.631 305.891 250.296 305.615C249.961 305.339 249.533 305.201 249.01 305.201C248.291 305.201 247.695 305.541 247.223 306.221C246.76 306.89 246.513 307.925 246.484 309.323C246.72 308.89 247.085 308.521 247.577 308.215C248.08 307.91 248.656 307.757 249.306 307.757C249.887 307.757 250.429 307.895 250.931 308.171C251.443 308.447 251.857 308.836 252.172 309.338C252.497 309.831 252.66 310.417 252.66 311.097C252.66 311.697 252.512 312.264 252.217 312.796C251.921 313.328 251.503 313.761 250.961 314.096C250.429 314.421 249.794 314.584 249.055 314.584ZM248.966 313.224C249.38 313.224 249.749 313.136 250.074 312.958C250.399 312.781 250.655 312.54 250.843 312.234C251.03 311.919 251.123 311.564 251.123 311.17C251.123 310.54 250.916 310.038 250.503 309.663C250.099 309.289 249.582 309.102 248.951 309.102C248.538 309.102 248.163 309.195 247.828 309.383C247.503 309.57 247.247 309.821 247.06 310.136C246.873 310.442 246.779 310.781 246.779 311.156C246.779 311.56 246.873 311.919 247.06 312.234C247.257 312.54 247.518 312.781 247.843 312.958C248.178 313.136 248.552 313.224 248.966 313.224ZM258.39 314.584C257.632 314.584 256.992 314.441 256.47 314.155C255.948 313.869 255.524 313.49 255.199 313.017C254.884 312.545 254.657 312.013 254.519 311.422C254.381 310.831 254.312 310.225 254.312 309.604C254.312 308.462 254.47 307.462 254.785 306.605C255.11 305.748 255.573 305.083 256.174 304.61C256.775 304.127 257.504 303.886 258.361 303.886C259.041 303.886 259.622 304.019 260.104 304.285C260.587 304.551 260.961 304.906 261.227 305.349C261.503 305.792 261.671 306.275 261.73 306.797H260.267C260.178 306.285 259.966 305.891 259.632 305.615C259.297 305.339 258.868 305.201 258.346 305.201C257.627 305.201 257.031 305.541 256.558 306.221C256.095 306.89 255.849 307.925 255.819 309.323C256.056 308.89 256.42 308.521 256.913 308.215C257.415 307.91 257.991 307.757 258.642 307.757C259.223 307.757 259.765 307.895 260.267 308.171C260.779 308.447 261.193 308.836 261.508 309.338C261.833 309.831 261.996 310.417 261.996 311.097C261.996 311.697 261.848 312.264 261.552 312.796C261.257 313.328 260.838 313.761 260.296 314.096C259.765 314.421 259.129 314.584 258.39 314.584ZM258.302 313.224C258.715 313.224 259.085 313.136 259.41 312.958C259.735 312.781 259.991 312.54 260.178 312.234C260.365 311.919 260.459 311.564 260.459 311.17C260.459 310.54 260.252 310.038 259.838 309.663C259.435 309.289 258.917 309.102 258.287 309.102C257.873 309.102 257.499 309.195 257.164 309.383C256.839 309.57 256.583 309.821 256.396 310.136C256.209 310.442 256.115 310.781 256.115 311.156C256.115 311.56 256.209 311.919 256.396 312.234C256.593 312.54 256.854 312.781 257.179 312.958C257.514 313.136 257.888 313.224 258.302 313.224ZM263.956 314.495C263.661 314.495 263.415 314.401 263.218 314.214C263.03 314.017 262.937 313.786 262.937 313.52C262.937 313.244 263.03 313.012 263.218 312.825C263.415 312.628 263.661 312.53 263.956 312.53C264.252 312.53 264.493 312.628 264.68 312.825C264.868 313.012 264.961 313.244 264.961 313.52C264.961 313.786 264.868 314.017 264.68 314.214C264.493 314.401 264.252 314.495 263.956 314.495ZM270.144 314.584C269.208 314.584 268.4 314.362 267.721 313.919C267.051 313.466 266.534 312.84 266.169 312.042C265.814 311.234 265.637 310.299 265.637 309.235C265.637 308.171 265.814 307.24 266.169 306.442C266.534 305.635 267.051 305.009 267.721 304.566C268.4 304.113 269.208 303.886 270.144 303.886C271.079 303.886 271.882 304.113 272.552 304.566C273.222 305.009 273.734 305.635 274.089 306.442C274.453 307.24 274.635 308.171 274.635 309.235C274.635 310.299 274.453 311.234 274.089 312.042C273.734 312.84 273.222 313.466 272.552 313.919C271.882 314.362 271.079 314.584 270.144 314.584ZM270.144 313.18C270.705 313.18 271.203 313.022 271.636 312.707C272.079 312.392 272.424 311.939 272.67 311.348C272.917 310.757 273.04 310.052 273.04 309.235C273.04 308.417 272.917 307.713 272.67 307.122C272.424 306.531 272.079 306.078 271.636 305.763C271.203 305.447 270.705 305.29 270.144 305.29C269.572 305.29 269.07 305.447 268.637 305.763C268.203 306.078 267.863 306.531 267.617 307.122C267.371 307.713 267.248 308.417 267.248 309.235C267.248 310.052 267.371 310.757 267.617 311.348C267.863 311.939 268.203 312.392 268.637 312.707C269.07 313.022 269.572 313.18 270.144 313.18ZM279.691 314.584C279.021 314.584 278.41 314.465 277.859 314.229C277.317 313.983 276.883 313.613 276.558 313.121C276.233 312.628 276.061 312.013 276.041 311.274H277.593C277.612 311.825 277.8 312.293 278.154 312.678C278.519 313.052 279.031 313.239 279.691 313.239C280.321 313.239 280.804 313.067 281.139 312.722C281.474 312.367 281.641 311.929 281.641 311.407C281.641 310.776 281.415 310.309 280.962 310.003C280.518 309.698 279.972 309.545 279.321 309.545H278.553V308.245H279.336C279.917 308.245 280.385 308.107 280.74 307.831C281.104 307.555 281.287 307.166 281.287 306.664C281.287 306.24 281.144 305.896 280.858 305.63C280.582 305.364 280.188 305.231 279.676 305.231C279.144 305.231 278.725 305.388 278.42 305.704C278.115 306.009 277.947 306.393 277.918 306.856H276.366C276.386 306.255 276.534 305.733 276.81 305.29C277.095 304.847 277.484 304.502 277.977 304.256C278.469 304.009 279.036 303.886 279.676 303.886C280.366 303.886 280.942 304.009 281.405 304.256C281.878 304.492 282.232 304.817 282.469 305.231C282.715 305.635 282.838 306.078 282.838 306.56C282.838 307.112 282.685 307.595 282.38 308.008C282.075 308.422 281.666 308.698 281.154 308.836C281.745 308.964 282.232 309.255 282.616 309.708C283.001 310.151 283.193 310.727 283.193 311.436C283.193 312.008 283.06 312.535 282.794 313.017C282.528 313.49 282.134 313.869 281.612 314.155C281.09 314.441 280.449 314.584 279.691 314.584Z" fill="#757575"/>
<g clip-path="url(#clip1_1073_39468)">
<path d="M150.988 335C162.034 335 170.988 326.046 170.988 315C170.988 303.954 162.034 295 150.988 295C139.943 295 130.988 303.954 130.988 315C130.988 326.046 139.943 335 150.988 335Z" fill="#F0F0F0"/>
<path d="M130.988 315C130.988 323.599 136.416 330.93 144.032 333.756V296.244C136.416 299.07 130.988 306.401 130.988 315Z" fill="#008753"/>
<path d="M170.988 315C170.988 306.401 165.561 299.07 157.945 296.244V333.756C165.561 330.93 170.988 323.599 170.988 315Z" fill="#008753"/>
</g>
</g>
<g filter="url(#filter2_dd_1073_39468)">
<rect x="78" y="61" width="366" height="80.3415" rx="6.69512" fill="white"/>
<g clip-path="url(#clip2_1073_39468)">
<path d="M183.256 97.0678C182.364 97.0678 181.554 96.8952 180.828 96.55C180.114 96.1929 179.543 95.6514 179.114 94.9253C178.698 94.1993 178.489 93.2768 178.489 92.158V84.356H180.382V92.1759C180.382 93.2709 180.644 94.0743 181.167 94.5861C181.691 95.0979 182.399 95.3538 183.292 95.3538C184.173 95.3538 184.875 95.0979 185.399 94.5861C185.922 94.0743 186.184 93.2709 186.184 92.1759V84.356H188.077V92.158C188.077 93.2768 187.857 94.1993 187.416 94.9253C186.988 95.6514 186.404 96.1929 185.667 96.55C184.94 96.8952 184.137 97.0678 183.256 97.0678ZM194.629 97.0678C193.712 97.0678 192.909 96.9071 192.218 96.5857C191.528 96.2643 190.986 95.8061 190.594 95.211C190.213 94.6159 190.016 93.9077 190.004 93.0864H192.004C192.016 93.7529 192.248 94.3183 192.7 94.7825C193.153 95.2467 193.789 95.4788 194.611 95.4788C195.337 95.4788 195.902 95.3062 196.307 94.961C196.723 94.604 196.932 94.1517 196.932 93.6041C196.932 93.1638 196.83 92.8067 196.628 92.5329C196.438 92.2592 196.17 92.033 195.825 91.8545C195.491 91.676 195.105 91.5153 194.664 91.3724C194.224 91.2296 193.76 91.0749 193.272 90.9082C192.308 90.5869 191.582 90.1703 191.094 89.6585C190.617 89.1467 190.379 88.4742 190.379 87.641C190.367 86.9388 190.528 86.3258 190.861 85.8021C191.207 85.2784 191.683 84.8737 192.29 84.5881C192.909 84.2905 193.629 84.1417 194.45 84.1417C195.259 84.1417 195.968 84.2905 196.575 84.5881C197.194 84.8856 197.676 85.3022 198.021 85.8378C198.366 86.3615 198.544 86.9745 198.556 87.6767H196.557C196.557 87.3554 196.473 87.0519 196.307 86.7662C196.14 86.4686 195.896 86.2246 195.575 86.0342C195.253 85.8438 194.861 85.7485 194.396 85.7485C193.801 85.7366 193.307 85.8854 192.915 86.1949C192.534 86.5043 192.343 86.9328 192.343 87.4803C192.343 87.9683 192.486 88.3433 192.772 88.6051C193.057 88.867 193.45 89.0872 193.95 89.2657C194.45 89.4323 195.021 89.6287 195.664 89.8549C196.283 90.0572 196.836 90.3012 197.324 90.5869C197.812 90.8725 198.199 91.2475 198.485 91.7117C198.782 92.1759 198.931 92.765 198.931 93.4792C198.931 94.11 198.771 94.6992 198.449 95.2467C198.128 95.7823 197.646 96.2227 197.003 96.5679C196.36 96.9011 195.569 97.0678 194.629 97.0678ZM201 96.8535V84.356H205.053C206.517 84.356 207.719 84.6119 208.66 85.1237C209.612 85.6355 210.314 86.3615 210.766 87.3018C211.23 88.2302 211.463 89.3371 211.463 90.6226C211.463 91.8962 211.23 93.0031 210.766 93.9434C210.314 94.8718 209.612 95.5919 208.66 96.1037C207.719 96.6036 206.517 96.8535 205.053 96.8535H201ZM202.893 95.2467H204.982C206.112 95.2467 207.005 95.0622 207.66 94.6932C208.326 94.3242 208.802 93.7946 209.088 93.1042C209.386 92.4139 209.534 91.5867 209.534 90.6226C209.534 89.6585 209.386 88.8253 209.088 88.1231C208.802 87.4208 208.326 86.8852 207.66 86.5162C207.005 86.1354 206.112 85.9449 204.982 85.9449H202.893V95.2467Z" fill="#757575"/>
<path d="M226.896 97.0678C226.063 97.0678 225.307 96.919 224.629 96.6214C223.962 96.312 223.427 95.8835 223.022 95.336C222.629 94.7884 222.433 94.1457 222.433 93.4078C222.433 92.6579 222.641 91.9854 223.058 91.3903C223.486 90.7952 224.052 90.3905 224.754 90.1762C224.123 89.9263 223.635 89.5633 223.29 89.0872C222.945 88.5992 222.772 88.0636 222.772 87.4803C222.772 86.8733 222.933 86.3199 223.254 85.82C223.576 85.3082 224.04 84.9035 224.647 84.6059C225.266 84.2964 226.016 84.1417 226.896 84.1417C227.777 84.1417 228.521 84.2964 229.128 84.6059C229.747 84.9035 230.217 85.3082 230.539 85.82C230.86 86.3199 231.021 86.8733 231.021 87.4803C231.021 88.0517 230.842 88.5873 230.485 89.0872C230.14 89.5752 229.652 89.9382 229.021 90.1762C229.723 90.4024 230.283 90.813 230.699 91.4082C231.128 91.9914 231.342 92.6579 231.342 93.4078C231.342 94.1457 231.146 94.7884 230.753 95.336C230.36 95.8835 229.824 96.312 229.146 96.6214C228.479 96.919 227.73 97.0678 226.896 97.0678ZM226.896 89.5692C227.587 89.5692 228.128 89.3907 228.521 89.0336C228.926 88.6765 229.128 88.2183 229.128 87.6589C229.128 87.0281 228.932 86.546 228.539 86.2127C228.146 85.8795 227.599 85.7128 226.896 85.7128C226.194 85.7128 225.647 85.8795 225.254 86.2127C224.861 86.546 224.665 87.0281 224.665 87.6589C224.665 88.2183 224.861 88.6765 225.254 89.0336C225.647 89.3907 226.194 89.5692 226.896 89.5692ZM226.896 95.4609C227.753 95.4609 228.396 95.2586 228.825 94.8539C229.253 94.4373 229.467 93.9077 229.467 93.2649C229.467 92.5508 229.235 92.0033 228.771 91.6224C228.319 91.2296 227.694 91.0332 226.896 91.0332C226.099 91.0332 225.468 91.2296 225.004 91.6224C224.54 92.0033 224.308 92.5508 224.308 93.2649C224.308 93.9077 224.522 94.4373 224.95 94.8539C225.391 95.2586 226.039 95.4609 226.896 95.4609ZM237.426 97.0678C236.604 97.0678 235.902 96.9071 235.319 96.5857C234.736 96.2643 234.277 95.8359 233.944 95.3002C233.623 94.7646 233.426 94.1814 233.355 93.5506H235.123C235.23 94.1695 235.486 94.6456 235.89 94.9789C236.295 95.3121 236.813 95.4788 237.443 95.4788C238.312 95.4788 239.027 95.0741 239.586 94.2647C240.157 93.4435 240.461 92.1878 240.496 90.4976C240.211 91.0213 239.764 91.4677 239.157 91.8366C238.562 92.2056 237.872 92.3901 237.086 92.3901C236.384 92.3901 235.724 92.2235 235.105 91.8902C234.486 91.5569 233.986 91.0927 233.605 90.4976C233.224 89.8906 233.034 89.1764 233.034 88.3552C233.034 87.6291 233.212 86.9447 233.569 86.302C233.926 85.6593 234.426 85.1415 235.069 84.7487C235.724 84.3441 236.497 84.1417 237.39 84.1417C238.306 84.1417 239.08 84.3143 239.711 84.6595C240.342 85.0046 240.848 85.4629 241.228 86.0342C241.609 86.6055 241.883 87.2482 242.05 87.9624C242.228 88.6765 242.318 89.4085 242.318 90.1584C242.318 91.5391 242.121 92.7472 241.728 93.7827C241.347 94.8182 240.794 95.6276 240.068 96.2108C239.342 96.7821 238.461 97.0678 237.426 97.0678ZM237.515 90.7654C238.015 90.7654 238.461 90.6523 238.854 90.4262C239.247 90.2001 239.556 89.9025 239.782 89.5335C240.02 89.1526 240.139 88.7361 240.139 88.2838C240.139 87.7958 240.02 87.3673 239.782 86.9983C239.556 86.6174 239.241 86.3199 238.836 86.1056C238.443 85.8914 237.997 85.7842 237.497 85.7842C236.997 85.7842 236.551 85.8914 236.158 86.1056C235.765 86.3199 235.45 86.6174 235.212 86.9983C234.986 87.3673 234.873 87.7898 234.873 88.2659C234.873 89.0277 235.123 89.6347 235.622 90.087C236.122 90.5393 236.753 90.7654 237.515 90.7654ZM248.706 97.0678C247.885 97.0678 247.183 96.9071 246.599 96.5857C246.016 96.2643 245.558 95.8359 245.225 95.3002C244.903 94.7646 244.707 94.1814 244.636 93.5506H246.403C246.51 94.1695 246.766 94.6456 247.171 94.9789C247.575 95.3121 248.093 95.4788 248.724 95.4788C249.593 95.4788 250.307 95.0741 250.867 94.2647C251.438 93.4435 251.741 92.1878 251.777 90.4976C251.491 91.0213 251.045 91.4677 250.438 91.8366C249.843 92.2056 249.153 92.3901 248.367 92.3901C247.665 92.3901 247.004 92.2235 246.385 91.8902C245.766 91.5569 245.266 91.0927 244.886 90.4976C244.505 89.8906 244.314 89.1764 244.314 88.3552C244.314 87.6291 244.493 86.9447 244.85 86.302C245.207 85.6593 245.707 85.1415 246.35 84.7487C247.004 84.3441 247.778 84.1417 248.671 84.1417C249.587 84.1417 250.361 84.3143 250.991 84.6595C251.622 85.0046 252.128 85.4629 252.509 86.0342C252.89 86.6055 253.164 87.2482 253.33 87.9624C253.509 88.6765 253.598 89.4085 253.598 90.1584C253.598 91.5391 253.402 92.7472 253.009 93.7827C252.628 94.8182 252.075 95.6276 251.349 96.2108C250.623 96.7821 249.742 97.0678 248.706 97.0678ZM248.795 90.7654C249.295 90.7654 249.742 90.6523 250.135 90.4262C250.527 90.2001 250.837 89.9025 251.063 89.5335C251.301 89.1526 251.42 88.7361 251.42 88.2838C251.42 87.7958 251.301 87.3673 251.063 86.9983C250.837 86.6174 250.521 86.3199 250.117 86.1056C249.724 85.8914 249.278 85.7842 248.778 85.7842C248.278 85.7842 247.831 85.8914 247.439 86.1056C247.046 86.3199 246.73 86.6174 246.492 86.9983C246.266 87.3673 246.153 87.7898 246.153 88.2659C246.153 89.0277 246.403 89.6347 246.903 90.087C247.403 90.5393 248.034 90.7654 248.795 90.7654ZM255.929 96.9606C255.572 96.9606 255.275 96.8476 255.036 96.6214C254.81 96.3834 254.697 96.1037 254.697 95.7823C254.697 95.449 254.81 95.1693 255.036 94.9432C255.275 94.7051 255.572 94.5861 255.929 94.5861C256.286 94.5861 256.578 94.7051 256.804 94.9432C257.03 95.1693 257.143 95.449 257.143 95.7823C257.143 96.1037 257.03 96.3834 256.804 96.6214C256.578 96.8476 256.286 96.9606 255.929 96.9606ZM263.406 97.0678C262.275 97.0678 261.299 96.8 260.478 96.2643C259.668 95.7168 259.043 94.961 258.603 93.9969C258.174 93.0209 257.96 91.8902 257.96 90.6047C257.96 89.3193 258.174 88.1945 258.603 87.2304C259.043 86.2544 259.668 85.4986 260.478 84.963C261.299 84.4155 262.275 84.1417 263.406 84.1417C264.536 84.1417 265.506 84.4155 266.316 84.963C267.125 85.4986 267.744 86.2544 268.172 87.2304C268.613 88.1945 268.833 89.3193 268.833 90.6047C268.833 91.8902 268.613 93.0209 268.172 93.9969C267.744 94.961 267.125 95.7168 266.316 96.2643C265.506 96.8 264.536 97.0678 263.406 97.0678ZM263.406 95.3717C264.084 95.3717 264.685 95.1812 265.209 94.8003C265.744 94.4195 266.161 93.872 266.458 93.1578C266.756 92.4437 266.905 91.5926 266.905 90.6047C266.905 89.6168 266.756 88.7658 266.458 88.0517C266.161 87.3375 265.744 86.79 265.209 86.4091C264.685 86.0282 264.084 85.8378 263.406 85.8378C262.715 85.8378 262.108 86.0282 261.584 86.4091C261.061 86.79 260.65 87.3375 260.353 88.0517C260.055 88.7658 259.906 89.6168 259.906 90.6047C259.906 91.5926 260.055 92.4437 260.353 93.1578C260.65 93.872 261.061 94.4195 261.584 94.8003C262.108 95.1812 262.715 95.3717 263.406 95.3717ZM275.941 97.0678C274.811 97.0678 273.835 96.8 273.013 96.2643C272.204 95.7168 271.579 94.961 271.139 93.9969C270.71 93.0209 270.496 91.8902 270.496 90.6047C270.496 89.3193 270.71 88.1945 271.139 87.2304C271.579 86.2544 272.204 85.4986 273.013 84.963C273.835 84.4155 274.811 84.1417 275.941 84.1417C277.072 84.1417 278.042 84.4155 278.852 84.963C279.661 85.4986 280.28 86.2544 280.708 87.2304C281.149 88.1945 281.369 89.3193 281.369 90.6047C281.369 91.8902 281.149 93.0209 280.708 93.9969C280.28 94.961 279.661 95.7168 278.852 96.2643C278.042 96.8 277.072 97.0678 275.941 97.0678ZM275.941 95.3717C276.62 95.3717 277.221 95.1812 277.745 94.8003C278.28 94.4195 278.697 93.872 278.994 93.1578C279.292 92.4437 279.441 91.5926 279.441 90.6047C279.441 89.6168 279.292 88.7658 278.994 88.0517C278.697 87.3375 278.28 86.79 277.745 86.4091C277.221 86.0282 276.62 85.8378 275.941 85.8378C275.251 85.8378 274.644 86.0282 274.12 86.4091C273.597 86.79 273.186 87.3375 272.888 88.0517C272.591 88.7658 272.442 89.6168 272.442 90.6047C272.442 91.5926 272.591 92.4437 272.888 93.1578C273.186 93.872 273.597 94.4195 274.12 94.8003C274.644 95.1812 275.251 95.3717 275.941 95.3717Z" fill="#757575"/>
<path d="M177.776 123.633L182.382 111.135H184.453L189.024 123.633H187.024L185.953 120.58H180.847L179.775 123.633H177.776ZM181.382 119.08H185.417L183.4 113.385L181.382 119.08ZM190.695 123.633V114.777H192.373L192.534 116.027C192.82 115.575 193.194 115.218 193.659 114.956C194.135 114.694 194.682 114.563 195.301 114.563C196.706 114.563 197.682 115.117 198.229 116.224C198.551 115.712 198.979 115.307 199.515 115.009C200.062 114.712 200.651 114.563 201.282 114.563C202.389 114.563 203.258 114.896 203.889 115.563C204.52 116.229 204.835 117.223 204.835 118.545V123.633H202.943V118.741C202.943 117.027 202.288 116.17 200.979 116.17C200.312 116.17 199.765 116.42 199.336 116.92C198.92 117.42 198.711 118.134 198.711 119.062V123.633H196.819V118.741C196.819 117.027 196.158 116.17 194.837 116.17C194.182 116.17 193.641 116.42 193.212 116.92C192.796 117.42 192.587 118.134 192.587 119.062V123.633H190.695ZM211.191 123.847C210.322 123.847 209.549 123.657 208.87 123.276C208.204 122.883 207.68 122.341 207.299 121.651C206.918 120.961 206.728 120.157 206.728 119.241C206.728 118.312 206.912 117.497 207.281 116.795C207.662 116.093 208.186 115.545 208.852 115.152C209.531 114.76 210.316 114.563 211.209 114.563C212.078 114.563 212.834 114.76 213.476 115.152C214.119 115.533 214.619 116.045 214.976 116.688C215.333 117.33 215.512 118.039 215.512 118.812C215.512 118.931 215.506 119.062 215.494 119.205C215.494 119.336 215.488 119.485 215.476 119.651H208.585C208.644 120.508 208.924 121.163 209.424 121.615C209.936 122.056 210.525 122.276 211.191 122.276C211.727 122.276 212.173 122.157 212.53 121.919C212.899 121.669 213.173 121.336 213.352 120.919H215.244C215.006 121.752 214.53 122.449 213.816 123.008C213.113 123.567 212.239 123.847 211.191 123.847ZM211.191 116.116C210.56 116.116 210.001 116.307 209.513 116.688C209.025 117.057 208.727 117.616 208.62 118.366H213.619C213.584 117.676 213.34 117.128 212.887 116.723C212.435 116.319 211.87 116.116 211.191 116.116ZM217.475 123.633V114.777H219.172L219.332 116.456C219.642 115.872 220.07 115.414 220.618 115.081C221.177 114.736 221.85 114.563 222.635 114.563V116.545H222.117C221.594 116.545 221.124 116.634 220.707 116.813C220.302 116.979 219.975 117.271 219.725 117.688C219.487 118.092 219.368 118.658 219.368 119.384V123.633H217.475ZM225.329 113.099C224.972 113.099 224.674 112.992 224.436 112.778C224.21 112.552 224.097 112.272 224.097 111.939C224.097 111.605 224.21 111.332 224.436 111.117C224.674 110.891 224.972 110.778 225.329 110.778C225.686 110.778 225.978 110.891 226.204 111.117C226.442 111.332 226.561 111.605 226.561 111.939C226.561 112.272 226.442 112.552 226.204 112.778C225.978 112.992 225.686 113.099 225.329 113.099ZM224.383 123.633V114.777H226.275V123.633H224.383ZM232.969 123.847C232.1 123.847 231.321 123.651 230.63 123.258C229.952 122.865 229.416 122.324 229.023 121.633C228.643 120.931 228.452 120.122 228.452 119.205C228.452 118.289 228.643 117.485 229.023 116.795C229.416 116.093 229.952 115.545 230.63 115.152C231.321 114.76 232.1 114.563 232.969 114.563C234.064 114.563 234.981 114.849 235.719 115.42C236.468 115.991 236.95 116.765 237.165 117.741H235.183C235.064 117.253 234.802 116.872 234.397 116.598C233.993 116.325 233.517 116.188 232.969 116.188C232.505 116.188 232.076 116.307 231.684 116.545C231.291 116.771 230.975 117.11 230.737 117.563C230.499 118.003 230.38 118.55 230.38 119.205C230.38 119.86 230.499 120.413 230.737 120.865C230.975 121.306 231.291 121.645 231.684 121.883C232.076 122.121 232.505 122.24 232.969 122.24C233.517 122.24 233.993 122.103 234.397 121.83C234.802 121.556 235.064 121.169 235.183 120.669H237.165C236.962 121.621 236.486 122.389 235.736 122.972C234.987 123.555 234.064 123.847 232.969 123.847ZM242.217 123.847C241.467 123.847 240.848 123.722 240.36 123.472C239.872 123.222 239.509 122.895 239.271 122.49C239.033 122.074 238.914 121.621 238.914 121.133C238.914 120.276 239.247 119.598 239.913 119.098C240.58 118.598 241.532 118.348 242.77 118.348H245.091V118.187C245.091 117.497 244.901 116.979 244.52 116.634C244.151 116.289 243.669 116.116 243.074 116.116C242.55 116.116 242.092 116.247 241.699 116.509C241.318 116.759 241.086 117.134 241.002 117.634H239.11C239.17 116.991 239.384 116.444 239.753 115.991C240.134 115.527 240.61 115.176 241.181 114.938C241.764 114.688 242.401 114.563 243.091 114.563C244.329 114.563 245.287 114.89 245.966 115.545C246.644 116.188 246.983 117.069 246.983 118.187V123.633H245.341L245.18 122.115C244.93 122.603 244.567 123.014 244.091 123.347C243.615 123.68 242.99 123.847 242.217 123.847ZM242.591 122.312C243.103 122.312 243.532 122.193 243.877 121.955C244.234 121.705 244.508 121.377 244.698 120.973C244.901 120.568 245.026 120.122 245.073 119.634H242.966C242.217 119.634 241.681 119.765 241.36 120.026C241.05 120.288 240.895 120.616 240.895 121.008C240.895 121.413 241.044 121.734 241.342 121.972C241.651 122.199 242.068 122.312 242.591 122.312ZM249.19 123.633V114.777H250.868L251.011 116.331C251.285 115.783 251.684 115.355 252.207 115.045C252.743 114.724 253.356 114.563 254.046 114.563C255.117 114.563 255.957 114.896 256.564 115.563C257.183 116.229 257.492 117.223 257.492 118.545V123.633H255.617V118.741C255.617 117.027 254.915 116.17 253.511 116.17C252.808 116.17 252.225 116.42 251.761 116.92C251.309 117.42 251.083 118.134 251.083 119.062V123.633H249.19ZM264.291 123.633V111.135H268.343C269.807 111.135 271.01 111.391 271.95 111.903C272.902 112.415 273.604 113.141 274.057 114.081C274.521 115.009 274.753 116.116 274.753 117.402C274.753 118.675 274.521 119.782 274.057 120.723C273.604 121.651 272.902 122.371 271.95 122.883C271.01 123.383 269.807 123.633 268.343 123.633H264.291ZM266.183 122.026H268.272C269.403 122.026 270.295 121.841 270.95 121.473C271.617 121.104 272.093 120.574 272.378 119.884C272.676 119.193 272.825 118.366 272.825 117.402C272.825 116.438 272.676 115.605 272.378 114.902C272.093 114.2 271.617 113.665 270.95 113.296C270.295 112.915 269.403 112.724 268.272 112.724H266.183V122.026ZM280.915 123.847C280.07 123.847 279.308 123.657 278.629 123.276C277.963 122.883 277.433 122.341 277.04 121.651C276.648 120.949 276.451 120.133 276.451 119.205C276.451 118.277 276.648 117.467 277.04 116.777C277.445 116.075 277.987 115.533 278.665 115.152C279.343 114.76 280.099 114.563 280.932 114.563C281.778 114.563 282.533 114.76 283.2 115.152C283.878 115.533 284.414 116.075 284.807 116.777C285.211 117.467 285.414 118.277 285.414 119.205C285.414 120.133 285.211 120.949 284.807 121.651C284.414 122.341 283.878 122.883 283.2 123.276C282.521 123.657 281.76 123.847 280.915 123.847ZM280.915 122.222C281.367 122.222 281.783 122.109 282.164 121.883C282.557 121.657 282.873 121.324 283.111 120.883C283.349 120.431 283.468 119.872 283.468 119.205C283.468 118.539 283.349 117.985 283.111 117.545C282.884 117.092 282.575 116.753 282.182 116.527C281.801 116.301 281.385 116.188 280.932 116.188C280.48 116.188 280.058 116.301 279.665 116.527C279.284 116.753 278.975 117.092 278.736 117.545C278.498 117.985 278.379 118.539 278.379 119.205C278.379 119.872 278.498 120.431 278.736 120.883C278.975 121.324 279.284 121.657 279.665 121.883C280.046 122.109 280.462 122.222 280.915 122.222ZM287.46 123.633V110.778H289.353V123.633H287.46ZM291.749 123.633V110.778H293.642V123.633H291.749ZM299.038 123.847C298.288 123.847 297.669 123.722 297.181 123.472C296.693 123.222 296.33 122.895 296.092 122.49C295.854 122.074 295.735 121.621 295.735 121.133C295.735 120.276 296.068 119.598 296.735 119.098C297.401 118.598 298.354 118.348 299.591 118.348H301.912V118.187C301.912 117.497 301.722 116.979 301.341 116.634C300.972 116.289 300.49 116.116 299.895 116.116C299.371 116.116 298.913 116.247 298.52 116.509C298.139 116.759 297.907 117.134 297.824 117.634H295.931C295.991 116.991 296.205 116.444 296.574 115.991C296.955 115.527 297.431 115.176 298.002 114.938C298.586 114.688 299.222 114.563 299.913 114.563C301.151 114.563 302.109 114.89 302.787 115.545C303.466 116.188 303.805 117.069 303.805 118.187V123.633H302.162L302.002 122.115C301.752 122.603 301.389 123.014 300.913 123.347C300.436 123.68 299.812 123.847 299.038 123.847ZM299.413 122.312C299.925 122.312 300.353 122.193 300.698 121.955C301.055 121.705 301.329 121.377 301.52 120.973C301.722 120.568 301.847 120.122 301.894 119.634H299.788C299.038 119.634 298.502 119.765 298.181 120.026C297.871 120.288 297.717 120.616 297.717 121.008C297.717 121.413 297.866 121.734 298.163 121.972C298.473 122.199 298.889 122.312 299.413 122.312ZM306.011 123.633V114.777H307.708L307.868 116.456C308.178 115.872 308.606 115.414 309.154 115.081C309.713 114.736 310.386 114.563 311.171 114.563V116.545H310.653C310.13 116.545 309.66 116.634 309.243 116.813C308.838 116.979 308.511 117.271 308.261 117.688C308.023 118.092 307.904 118.658 307.904 119.384V123.633H306.011Z" fill="#121212"/>
</g>
<g clip-path="url(#clip3_1073_39468)">
<path d="M128 124C141.255 124 152 113.255 152 100C152 86.7452 141.255 76 128 76C114.745 76 104 86.7452 104 100C104 113.255 114.745 124 128 124Z" fill="#F0F0F0"/>
<path d="M126.957 99.9999H152C152 97.8337 151.711 95.7352 151.173 93.739H126.957V99.9999Z" fill="#D80027"/>
<path d="M126.957 87.4782H148.477C147.008 85.0808 145.13 82.9618 142.94 81.2173H126.957V87.4782Z" fill="#D80027"/>
<path d="M128 124C133.648 124 138.84 122.048 142.94 118.782H113.06C117.16 122.048 122.352 124 128 124Z" fill="#D80027"/>
<path d="M107.523 112.522H148.477C149.657 110.597 150.572 108.493 151.173 106.261H104.827C105.428 108.493 106.343 110.597 107.523 112.522Z" fill="#D80027"/>
<path d="M115.117 79.7479H117.304L115.27 81.2259L116.047 83.6174L114.013 82.1394L111.978 83.6174L112.65 81.5514C110.859 83.0434 109.289 84.7915 107.995 86.7393H108.696L107.401 87.68C107.199 88.0166 107.005 88.3585 106.82 88.7055L107.438 90.6087L106.285 89.7705C105.998 90.3781 105.736 90.9993 105.5 91.6336L106.181 93.7306H108.696L106.661 95.2085L107.438 97.6L105.404 96.122L104.186 97.0074C104.064 97.9878 104 98.9865 104 100H128C128 86.7452 128 85.1826 128 76C123.259 76 118.839 77.3753 115.117 79.7479ZM116.047 97.6L114.013 96.122L111.978 97.6L112.756 95.2085L110.721 93.7306H113.236L114.013 91.3391L114.79 93.7306H117.304L115.27 95.2085L116.047 97.6ZM115.27 88.2172L116.047 90.6087L114.013 89.1307L111.978 90.6087L112.756 88.2172L110.721 86.7393H113.236L114.013 84.3478L114.79 86.7393H117.304L115.27 88.2172ZM124.656 97.6L122.621 96.122L120.587 97.6L121.364 95.2085L119.33 93.7306H121.844L122.621 91.3391L123.398 93.7306H125.913L123.879 95.2085L124.656 97.6ZM123.879 88.2172L124.656 90.6087L122.621 89.1307L120.587 90.6087L121.364 88.2172L119.33 86.7393H121.844L122.621 84.3478L123.398 86.7393H125.913L123.879 88.2172ZM123.879 81.2259L124.656 83.6174L122.621 82.1394L120.587 83.6174L121.364 81.2259L119.33 79.7479H121.844L122.621 77.3565L123.398 79.7479H125.913L123.879 81.2259Z" fill="#0052B4"/>
</g>
</g>
<path fill-rule="evenodd" clip-rule="evenodd" d="M260.845 188.438C270.026 188.438 277.468 180.996 277.468 171.816C277.468 162.635 270.026 155.193 260.845 155.193C251.665 155.193 244.223 162.635 244.223 171.816C244.223 180.996 251.665 188.438 260.845 188.438Z" fill="white"/>
<path fill-rule="evenodd" clip-rule="evenodd" d="M261.781 167.148L259.332 164.699C258.971 164.337 258.386 164.337 258.026 164.699L255.576 167.148C255.312 167.412 255.233 167.809 255.375 168.154C255.519 168.5 255.856 168.724 256.229 168.724H257.755V174.405C257.755 174.916 258.168 175.329 258.679 175.329C259.188 175.329 259.602 174.916 259.602 174.405V168.724H261.128C261.501 168.724 261.838 168.5 261.981 168.154C262.124 167.809 262.045 167.412 261.781 167.148Z" fill="url(#paint0_linear_1073_39468)"/>
<mask id="mask0_1073_39468" style="mask-type:alpha" maskUnits="userSpaceOnUse" x="260" y="167" width="8" height="12">
<path fill-rule="evenodd" clip-rule="evenodd" d="M260.712 167.191H267.458V178.092H260.712V167.191Z" fill="white"/>
</mask>
<g mask="url(#mask0_1073_39468)">
<path fill-rule="evenodd" clip-rule="evenodd" d="M260.983 175.372L263.432 177.821C263.793 178.182 264.377 178.182 264.737 177.821L267.187 175.372C267.451 175.108 267.531 174.711 267.388 174.366C267.245 174.02 266.908 173.796 266.534 173.796H265.008V168.115C265.008 167.604 264.595 167.191 264.085 167.191C263.576 167.191 263.161 167.604 263.161 168.115V173.796H261.636C261.262 173.796 260.925 174.02 260.782 174.366C260.64 174.711 260.719 175.108 260.983 175.372Z" fill="url(#paint1_linear_1073_39468)"/>
</g>
<defs>
<filter id="filter0_dd_1073_39468" x="85.4128" y="183.446" width="350.866" height="114.459" filterUnits="userSpaceOnUse" color-interpolation-filters="sRGB">
<feFlood flood-opacity="0" result="BackgroundImageFix"/>
<feColorMatrix in="SourceAlpha" type="matrix" values="0 0 0 0 0 0 0 0 0 0 0 0 0 0 0 0 0 0 127 0" result="hardAlpha"/>
<feMorphology radius="1.14212" operator="erode" in="SourceAlpha" result="effect1_dropShadow_1073_39468"/>
<feOffset dy="5.13956"/>
<feGaussianBlur stdDeviation="12.5634"/>
<feColorMatrix type="matrix" values="0 0 0 0 0.0941176 0 0 0 0 0.152941 0 0 0 0 0.294118 0 0 0 0.14 0"/>
<feBlend mode="normal" in2="BackgroundImageFix" result="effect1_dropShadow_1073_39468"/>
<feColorMatrix in="SourceAlpha" type="matrix" values="0 0 0 0 0 0 0 0 0 0 0 0 0 0 0 0 0 0 127 0" result="hardAlpha"/>
<feMorphology radius="1.71319" operator="erode" in="SourceAlpha" result="effect2_dropShadow_1073_39468"/>
<feOffset dy="2.28425"/>
<feGaussianBlur stdDeviation="3.99744"/>
<feColorMatrix type="matrix" values="0 0 0 0 0.39367 0 0 0 0 0 0 0 0 0 0.639714 0 0 0 0.16 0"/>
<feBlend mode="normal" in2="effect1_dropShadow_1073_39468" result="effect2_dropShadow_1073_39468"/>
<feBlend mode="normal" in="SourceGraphic" in2="effect2_dropShadow_1073_39468" result="shape"/>
</filter>
<filter id="filter1_dd_1073_39468" x="102.01" y="277.09" width="317.672" height="81.2649" filterUnits="userSpaceOnUse" color-interpolation-filters="sRGB">
<feFlood flood-opacity="0" result="BackgroundImageFix"/>
<feColorMatrix in="SourceAlpha" type="matrix" values="0 0 0 0 0 0 0 0 0 0 0 0 0 0 0 0 0 0 127 0" result="hardAlpha"/>
<feMorphology radius="1.84693" operator="erode" in="SourceAlpha" result="effect1_dropShadow_1073_39468"/>
<feOffset dy="3.69386"/>
<feGaussianBlur stdDeviation="1.84693"/>
<feColorMatrix type="matrix" values="0 0 0 0 0.0941176 0 0 0 0 0.152941 0 0 0 0 0.294118 0 0 0 0.08 0"/>
<feBlend mode="normal" in2="BackgroundImageFix" result="effect1_dropShadow_1073_39468"/>
<feColorMatrix in="SourceAlpha" type="matrix" values="0 0 0 0 0 0 0 0 0 0 0 0 0 0 0 0 0 0 127 0" result="hardAlpha"/>
<feMorphology radius="1.84693" operator="erode" in="SourceAlpha" result="effect2_dropShadow_1073_39468"/>
<feOffset dy="1.84693"/>
<feGaussianBlur stdDeviation="4.61733"/>
<feColorMatrix type="matrix" values="0 0 0 0 0.392157 0 0 0 0 0 0 0 0 0 0.639216 0 0 0 0.12 0"/>
<feBlend mode="normal" in2="effect1_dropShadow_1073_39468" result="effect2_dropShadow_1073_39468"/>
<feBlend mode="normal" in="SourceGraphic" in2="effect2_dropShadow_1073_39468" result="shape"/>
</filter>
<filter id="filter2_dd_1073_39468" x="0.428937" y="0.0513089" width="521.142" height="235.484" filterUnits="userSpaceOnUse" color-interpolation-filters="sRGB">
<feFlood flood-opacity="0" result="BackgroundImageFix"/>
<feColorMatrix in="SourceAlpha" type="matrix" values="0 0 0 0 0 0 0 0 0 0 0 0 0 0 0 0 0 0 127 0" result="hardAlpha"/>
<feMorphology radius="3.69386" operator="erode" in="SourceAlpha" result="effect1_dropShadow_1073_39468"/>
<feOffset dy="16.6224"/>
<feGaussianBlur stdDeviation="40.6325"/>
<feColorMatrix type="matrix" values="0 0 0 0 0.0941176 0 0 0 0 0.152941 0 0 0 0 0.294118 0 0 0 0.14 0"/>
<feBlend mode="normal" in2="BackgroundImageFix" result="effect1_dropShadow_1073_39468"/>
<feColorMatrix in="SourceAlpha" type="matrix" values="0 0 0 0 0 0 0 0 0 0 0 0 0 0 0 0 0 0 127 0" result="hardAlpha"/>
<feMorphology radius="5.54079" operator="erode" in="SourceAlpha" result="effect2_dropShadow_1073_39468"/>
<feOffset dy="7.38772"/>
<feGaussianBlur stdDeviation="12.9285"/>
<feColorMatrix type="matrix" values="0 0 0 0 0.392157 0 0 0 0 0 0 0 0 0 0.639216 0 0 0 0.12 0"/>
<feBlend mode="normal" in2="effect1_dropShadow_1073_39468" result="effect2_dropShadow_1073_39468"/>
<feBlend mode="normal" in="SourceGraphic" in2="effect2_dropShadow_1073_39468" result="shape"/>
</filter>
<linearGradient id="paint0_linear_1073_39468" x1="257.386" y1="178.816" x2="264.753" y2="175.566" gradientUnits="userSpaceOnUse">
<stop stop-color="#4598F5"/>
<stop offset="1" stop-color="#45BEF5"/>
</linearGradient>
<linearGradient id="paint1_linear_1073_39468" x1="262.792" y1="181.58" x2="270.159" y2="178.33" gradientUnits="userSpaceOnUse">
<stop stop-color="#4598F5"/>
<stop offset="1" stop-color="#45BEF5"/>
</linearGradient>
<clipPath id="clip0_1073_39468">
<rect width="40" height="40" fill="white" transform="translate(131 214)"/>
</clipPath>
<clipPath id="clip1_1073_39468">
<rect width="40" height="40" fill="white" transform="translate(130.988 295)"/>
</clipPath>
<clipPath id="clip2_1073_39468">
<rect width="145.061" height="44.6341" fill="white" transform="translate(177.311 78.8535)"/>
</clipPath>
<clipPath id="clip3_1073_39468">
<rect width="48" height="48" fill="white" transform="translate(104 76)"/>
</clipPath>
</defs>
</svg>
