<svg xmlns="http://www.w3.org/2000/svg" fill="none" viewBox="0 0.64 73 29">
<g clip-path="url(#clip0_962_41297)">
<path d="M0 0.651733H73V29.6383H0V0.651733Z" fill="#040052"/>
<path d="M42.7299 10.8729C41.8119 10.8729 41.0908 11.0745 40.3694 11.477C40.3694 9.32844 40.3694 7.38153 40.4353 6.71033L36.041 7.51569V7.91857L36.5 7.98565C37.0897 8.11981 37.2874 8.45522 37.4173 9.26136C37.5495 10.8729 37.4832 19.4674 37.4173 20.8777C38.5977 21.1464 39.8441 21.348 41.0905 21.348C44.5663 21.348 46.6648 19.132 46.6648 15.6403C46.6648 12.8876 44.9598 10.8729 42.7299 10.8729V10.8729ZM41.2215 20.609C40.959 20.609 40.6307 20.609 40.4345 20.5423C40.3686 19.6024 40.3035 15.6403 40.3686 12.149C40.7621 12.0144 41.0242 11.9473 41.3525 11.9473C42.7962 11.9473 43.5832 13.693 43.5832 15.8412C43.5828 18.5279 42.5989 20.609 41.2215 20.609V20.609ZM19.5139 6.97865H7.97144V7.58277L8.62737 7.64986C9.47948 7.78402 9.80783 8.32106 9.93848 9.59677C10.1358 12.014 10.0699 16.379 9.93848 18.4597C9.80745 19.7358 9.47986 20.3403 8.62737 20.4066L7.97144 20.5415V21.0786H15.3821V20.5415L14.5952 20.4066C13.7427 20.3399 13.4147 19.7358 13.2837 18.4597C13.2178 17.5864 13.1523 16.1762 13.1523 14.4309L14.7262 14.498C15.7101 14.498 16.1687 15.3037 16.3657 16.4449H16.9561V11.679H16.3657C16.1683 12.8206 15.7101 13.6259 14.7262 13.6259L13.1526 13.6934C13.1526 11.4103 13.2182 9.26175 13.2841 7.98604H15.5791C17.3503 7.98604 18.2683 9.1272 18.9239 11.142L19.5798 10.9403L19.5139 6.97865V6.97865Z" fill="white"/>
<path d="M23.2519 10.7387C26.5312 10.7387 28.1707 13.0218 28.1707 16.0432C28.1707 18.9304 26.3343 21.3484 23.055 21.3484C19.7761 21.3484 18.1366 19.065 18.1366 16.0432C18.1366 13.156 19.9726 10.7387 23.2519 10.7387V10.7387ZM23.055 11.4103C21.6121 11.4103 21.2186 13.4247 21.2186 16.0432C21.2186 18.5946 21.8745 20.6761 23.1864 20.6761C24.6937 20.6761 25.0879 18.6617 25.0879 16.0432C25.0879 13.4918 24.4327 11.4103 23.055 11.4103ZM47.5166 16.1107C47.5166 13.3576 49.2215 10.7387 52.5663 10.7387C55.32 10.7387 56.6322 12.8206 56.6322 15.5732H50.533C50.4671 18.0576 51.6476 19.8707 54.0089 19.8707C55.0583 19.8707 55.5828 19.6028 56.2391 19.1324L56.5008 19.4678C55.8449 20.4078 54.4024 21.3484 52.5663 21.3484C49.615 21.3481 47.5166 19.1995 47.5166 16.1107V16.1107ZM50.533 14.835L53.6154 14.7675C53.6154 13.4247 53.4184 11.4103 52.3039 11.4103C51.1893 11.4103 50.5982 13.2901 50.533 14.835V14.835ZM64.4375 11.2762C63.6506 10.94 62.6015 10.7387 61.4211 10.7387C58.995 10.7387 57.4858 12.2157 57.4858 13.9617C57.4858 15.7078 58.5996 16.4461 60.1755 16.9835C61.8146 17.5872 62.2739 18.0576 62.2739 18.8633C62.2739 19.6691 61.6835 20.4074 60.6341 20.4074C59.3885 20.4074 58.4697 19.6691 57.7487 17.6543L57.2893 17.7893L57.3552 20.7435C58.1422 21.079 59.5847 21.3481 60.831 21.3481C63.3889 21.3481 65.0287 20.0045 65.0287 17.9234C65.0287 16.5132 64.3069 15.7078 62.6019 15.0358C60.7651 14.2975 60.11 13.8276 60.11 12.9543C60.11 12.0815 60.7011 11.477 61.4881 11.477C62.6678 11.477 63.4548 12.2157 64.046 14.0288L64.5046 13.8947L64.4375 11.2762V11.2762ZM36.6959 11.0074C35.5813 10.3366 33.6135 10.6716 32.5645 13.0893L32.6296 10.7391L28.2362 11.6119V12.0148L28.6952 12.0819C29.286 12.1494 29.5477 12.4848 29.6136 13.358C29.7446 14.9695 29.6791 17.79 29.6136 19.1999C29.5477 20.0049 29.286 20.4078 28.6952 20.4752L28.2362 20.5427V21.0797H34.335V20.5427L33.548 20.4752C32.8925 20.4078 32.6955 20.0049 32.6296 19.1999C32.4986 17.9238 32.4986 15.3724 32.5645 13.7609C32.8921 13.2905 34.335 12.888 35.6465 13.7609L36.6959 11.0074V11.0074Z" fill="white"/>
</g>
<defs>
<clipPath id="clip0_962_41297">
<rect width="73" height="29" fill="white" transform="translate(0 0.644775)"/>
</clipPath>
</defs>
</svg>