<svg xmlns="http://www.w3.org/2000/svg" fill="none" viewBox="0 0.64 82 27">
<g clip-path="url(#clip0_962_41309)">
<path d="M0 27.4959V0.644775H81.8509C81.896 0.834935 81.9815 1.02442 81.9815 1.21458C81.9884 9.82569 81.9904 18.4368 81.9877 27.0479C81.9877 27.1379 82.0212 27.2509 81.9781 27.3125C81.8967 27.4396 81.7852 27.5451 81.6532 27.6197C81.5527 27.6691 81.4077 27.6306 81.2825 27.6306H3.71817C2.64841 27.6306 1.57796 27.6367 0.508199 27.6245C0.34199 27.6224 0.169629 27.5406 0 27.4959ZM65.559 24.5264C66.0938 24.5264 66.6287 24.521 67.1636 24.5264C67.4673 24.5305 67.6294 24.3965 67.6677 24.1001C67.7589 23.3873 67.8535 22.6747 67.9516 21.9623C68.1868 20.215 68.4235 18.4679 68.6615 16.7211C68.7238 16.271 68.7908 16.2244 69.2593 16.223C69.9762 16.223 70.6957 16.2189 71.4105 16.223C71.7224 16.223 71.8893 16.1032 71.9324 15.7804C72.0767 14.7349 72.2436 13.692 72.3961 12.6479C72.47 12.1423 72.3961 12.0632 71.8688 12.0618C71.1971 12.0618 70.5254 12.0618 69.8537 12.0618C69.47 12.0584 69.3872 11.9623 69.4365 11.5956C69.7657 9.16971 70.0959 6.74388 70.4269 4.31804C70.4898 3.85652 70.4119 3.76313 69.9303 3.76245C68.9176 3.76245 67.9046 3.76245 66.8914 3.76245C66.4181 3.76245 66.3353 3.82336 66.2703 4.28353C65.9611 6.47432 65.6552 8.66533 65.3524 10.8566C65.0013 13.3708 64.6499 15.8844 64.2984 18.3973C64.0385 20.2549 63.7738 22.1112 63.5166 23.9688C63.4516 24.4364 63.5371 24.523 64.0227 24.5251C64.5343 24.5285 65.0473 24.5264 65.559 24.5264ZM34.1591 24.5264C34.603 24.5264 35.0483 24.5542 35.4895 24.5156C35.7227 24.4946 35.9935 24.4141 36.1652 24.2672C37.4532 23.1615 38.7227 22.034 39.9894 20.9046C40.0941 20.8112 40.1337 20.6468 40.2035 20.5155C40.0612 20.4661 39.9196 20.3801 39.7767 20.374C39.0147 20.3598 38.2521 20.3693 37.4894 20.3659C37.0387 20.3659 36.9655 20.2705 37.0264 19.8435C37.3146 17.8309 37.6 15.8185 37.8827 13.8064C38.3314 10.6258 38.7794 7.44519 39.2268 4.26458C39.2787 3.89576 39.1823 3.76651 38.7972 3.76448C37.7275 3.75907 36.6577 3.76448 35.5879 3.76042C35.2726 3.76042 35.1091 3.88291 35.0695 4.20503C34.8786 5.62954 34.6714 7.05202 34.4717 8.47517C34.1178 11.0016 33.7644 13.5263 33.4115 16.0491C33.0389 18.7064 32.6666 21.3641 32.2945 24.0223C32.2391 24.4181 32.3376 24.5203 32.759 24.5244C33.2261 24.5298 33.6926 24.5264 34.1591 24.5264ZM20.8083 24.5264C21.3432 24.5264 21.8781 24.521 22.4129 24.5264C22.7317 24.5312 22.8856 24.3911 22.9294 24.0778C23.3767 20.8516 23.8281 17.6258 24.2837 14.4006C24.7574 11.0197 25.2305 7.63874 25.7029 4.25781C25.7542 3.88968 25.6564 3.76313 25.2672 3.7611C24.1975 3.75568 23.127 3.7611 22.0573 3.75704C21.7406 3.75704 21.5853 3.88561 21.5429 4.20571C21.3753 5.46374 21.19 6.71907 21.0142 7.97575C20.6394 10.6565 20.2655 13.337 19.8925 16.0173C19.5185 18.6863 19.1435 21.3551 18.7673 24.0236C18.7132 24.4073 18.8097 24.5156 19.2037 24.5203C19.7386 24.5312 20.2734 24.5264 20.8083 24.5264ZM42.6474 24.5264C43.1823 24.5264 43.7171 24.5176 44.2513 24.5298C44.5933 24.5373 44.7418 24.3782 44.7855 24.0561C45.0749 21.9535 45.3731 19.8523 45.6658 17.7504C46.2905 13.2682 46.9146 8.78624 47.5379 4.30451C47.5995 3.86396 47.5167 3.76313 47.0591 3.76313C46.0464 3.76042 45.0336 3.76042 44.0208 3.76313C43.5243 3.76313 43.4422 3.82471 43.3758 4.29842C43.0461 6.6444 42.7192 8.99039 42.395 11.3364C42.0421 13.8628 41.688 16.387 41.3328 18.9089C41.0961 20.6007 40.854 22.2926 40.6255 23.9803C40.5626 24.4391 40.6433 24.5217 41.1105 24.5217C41.6228 24.5291 42.1337 24.5264 42.6474 24.5264V24.5264ZM73.8537 24.5264C74.3886 24.5264 74.9235 24.5163 75.4583 24.5298C75.8003 24.5386 75.9563 24.385 75.9987 24.0635C76.1109 23.217 76.2319 22.3717 76.3496 21.5272C76.7458 18.6804 77.1421 15.8332 77.5384 12.9855C77.9419 10.0937 78.3459 7.20225 78.7504 4.31127C78.8133 3.85855 78.7298 3.76516 78.2791 3.76381C77.2435 3.7611 76.2078 3.7611 75.1717 3.76381C74.7511 3.76381 74.6526 3.84704 74.5951 4.25917C74.3361 6.10528 74.0792 7.9516 73.8243 9.79816C73.4723 12.3223 73.1186 14.8465 72.7634 17.3707C72.4543 19.5845 72.1467 21.7979 71.8407 24.0108C71.7826 24.4344 71.8715 24.523 72.3195 24.5257C72.8291 24.5291 73.3414 24.5264 73.8537 24.5264ZM6.14565 16.225C6.57793 16.225 7.01089 16.2162 7.44523 16.225C7.59264 16.2302 7.73962 16.2061 7.87751 16.1543C8.01541 16.1025 8.14144 16.0239 8.24823 15.9232C9.49788 14.8262 10.7585 13.7414 12.0054 12.6418C12.1264 12.5348 12.1805 12.3535 12.2653 12.2073C12.1005 12.1586 11.937 12.072 11.7715 12.072C11.0095 12.0571 10.2468 12.072 9.48487 12.0632C9.13945 12.0632 9.03686 11.9468 9.07858 11.6395C9.39869 9.28115 9.7229 6.92343 10.0362 4.56437C10.0546 4.42564 9.98693 4.27609 9.95957 4.13127C9.82277 4.19353 9.66613 4.22939 9.55943 4.3221C8.26327 5.45291 6.96984 6.58575 5.69215 7.73618C5.52509 7.89673 5.41415 8.10583 5.37547 8.33306C5.01091 10.7869 4.66755 13.2441 4.31666 15.6999C4.25989 16.0958 4.3488 16.2169 4.74961 16.2237C5.21268 16.2304 5.67711 16.2244 6.14565 16.225V16.225ZM50.8874 16.225C51.3423 16.225 51.7998 16.2501 52.2554 16.2149C52.4784 16.1973 52.739 16.1201 52.9038 15.9801C54.2157 14.8655 55.5105 13.732 56.8025 12.5964C56.9058 12.5057 56.9393 12.3386 57.0077 12.2066C56.875 12.1606 56.743 12.0767 56.6096 12.0713C55.8354 12.0584 55.0611 12.0672 54.2841 12.0638C53.8443 12.0638 53.7725 11.965 53.8327 11.5279C54.1519 9.2013 54.4658 6.87404 54.7745 4.5461C54.7923 4.41076 54.7143 4.26391 54.6808 4.12247C54.5556 4.18473 54.4072 4.22398 54.3087 4.31263C53.0297 5.4299 51.7602 6.55801 50.4784 7.67393C50.2673 7.84423 50.1308 8.0886 50.0974 8.35607C49.7513 10.8261 49.3929 13.2962 49.0406 15.7635C48.9941 16.0877 49.1029 16.2142 49.4544 16.2216C49.9312 16.2318 50.41 16.2244 50.8888 16.2244L50.8874 16.225ZM62.0364 12.386C62.0788 12.1647 61.8818 12.0686 61.6055 12.0679C60.5111 12.0638 59.4215 12.0679 58.3299 12.0679C58.0392 12.0679 57.8915 12.2134 57.8511 12.4888C57.7786 13.0225 57.7052 13.5562 57.6309 14.09C57.2542 16.7684 56.8771 19.4469 56.4995 22.1254C56.4181 22.7033 56.3347 23.2812 56.2677 23.8605C56.2567 23.9566 56.3265 24.0635 56.3586 24.1623C56.4615 24.138 56.5619 24.104 56.6582 24.0608C56.7424 24.0036 56.8203 23.9378 56.8908 23.8646C58.0871 22.8096 59.2738 21.7437 60.4865 20.7077C60.6295 20.5915 60.7476 20.4483 60.8339 20.2864C60.9202 20.1246 60.973 19.9473 60.9892 19.765C61.1185 18.7296 61.2799 17.6976 61.427 16.6642C61.6274 15.2722 61.823 13.8829 62.0378 12.3853L62.0364 12.386ZM15.253 12.0652C14.7058 12.0652 14.1586 12.0693 13.6148 12.0652C13.3125 12.0652 13.1497 12.1958 13.1121 12.4936C13.0635 12.8719 13.0054 13.2495 12.9527 13.6271L11.742 22.231C11.6688 22.7534 11.5861 23.2745 11.528 23.7989C11.515 23.916 11.5895 24.0426 11.6237 24.1644C11.7331 24.1224 11.8439 24.0838 11.9507 24.0358C11.989 24.0116 12.0236 23.982 12.0532 23.9478C13.3439 22.8116 14.6394 21.6808 15.9185 20.5324C16.0708 20.3871 16.1722 20.1974 16.2078 19.991C16.5696 17.5257 16.9137 15.0577 17.2598 12.5897C17.3186 12.1708 17.2283 12.0747 16.7892 12.0706C16.2789 12.0611 15.768 12.0645 15.253 12.0652ZM59.5754 3.76313C58.5282 3.76313 57.4811 3.76313 56.4339 3.76313C56.0173 3.76313 55.9188 3.85584 55.8641 4.26594C55.7273 5.27877 55.5905 6.2916 55.4537 7.30443C55.3853 7.83566 55.4585 7.92093 56.0009 7.92093C58.0269 7.92093 60.0529 7.92093 62.0788 7.92093C62.6 7.92093 62.676 7.84919 62.7457 7.32947C62.8789 6.32792 63.0136 5.32636 63.15 4.32481C63.2129 3.86464 63.1267 3.76313 62.6479 3.76245C61.6274 3.7611 60.6014 3.76313 59.5754 3.76313ZM51.4982 24.5264C52.5342 24.5264 53.5702 24.5264 54.6063 24.5264C55.0399 24.5264 55.124 24.4506 55.1801 24.0358C55.3196 22.9981 55.459 21.9628 55.598 20.9296C55.6603 20.4695 55.5796 20.3693 55.1042 20.3686C53.0317 20.3659 50.9594 20.3659 48.8874 20.3686C48.477 20.3686 48.386 20.4519 48.3327 20.8423C48.1927 21.8777 48.0534 22.9133 47.9148 23.9492C47.8464 24.4378 47.9216 24.523 48.4237 24.5237C49.4497 24.5269 50.4752 24.5278 51.5003 24.5264H51.4982ZM6.7414 24.5264C7.79953 24.5264 8.85834 24.5264 9.91715 24.5264C10.2318 24.5264 10.396 24.408 10.437 24.0838C10.5738 22.9923 10.729 21.9014 10.8857 20.8119C10.9281 20.5161 10.792 20.3855 10.5184 20.3713C10.2571 20.3578 9.99445 20.3652 9.73248 20.3652C7.88845 20.3652 6.04417 20.3652 4.19968 20.3652C3.75714 20.3652 3.64156 20.4451 3.59505 20.7902C3.45096 21.8473 3.3105 22.905 3.1737 23.9634C3.11146 24.4479 3.18671 24.523 3.70176 24.5237L6.7414 24.5264ZM14.3179 7.92431C15.3535 7.92431 16.3891 7.92431 17.4246 7.92431C17.8425 7.92431 17.9404 7.82957 17.9958 7.41948C18.1326 6.4071 18.2693 5.39426 18.4061 4.38098C18.4745 3.8484 18.4061 3.76719 17.859 3.76651H11.7817C11.2585 3.76651 11.1832 3.83418 11.1141 4.35391C10.9828 5.34644 10.8492 6.33694 10.7133 7.32541C10.6449 7.82484 10.7256 7.92364 11.2455 7.92499C12.2694 7.92431 13.294 7.92431 14.3179 7.92431ZM27.0566 24.5285C27.9218 24.5285 28.787 24.5285 29.6523 24.5285C30.0579 24.5285 30.1619 24.4445 30.2159 24.0547C30.3623 22.9977 30.5038 21.94 30.6406 20.8816C30.6919 20.4755 30.5989 20.3707 30.1844 20.3693C28.4321 20.3646 26.679 20.3693 24.9259 20.3659C24.6161 20.3659 24.4471 20.485 24.4054 20.8105C24.2741 21.8581 24.127 22.9036 23.9793 23.9492C23.9109 24.4229 23.9909 24.5251 24.4957 24.5257C25.3493 24.5278 26.2029 24.5264 27.0566 24.5264V24.5285Z" fill="#040052"/>
</g>
<defs>
<clipPath id="clip0_962_41309">
<rect width="82" height="27" fill="white" transform="translate(0 0.644775)"/>
</clipPath>
</defs>
</svg>